<svg width="39" height="34" viewBox="0 0 39 34" fill="none" xmlns="http://www.w3.org/2000/svg">
<path d="M28.824 33.2154C29.0487 33.7199 29.6398 33.9468 30.1443 33.7221L38.366 30.0609C38.8705 29.8362 39.0973 29.2451 38.8727 28.7406C38.648 28.236 38.0569 28.0092 37.5524 28.2339L30.2442 31.4883L26.9898 24.1801C26.7651 23.6756 26.174 23.4488 25.6695 23.6734C25.165 23.8981 24.9381 24.4892 25.1628 24.9938L28.824 33.2154ZM1.09568 2.98941C12.9715 1.84792 21.0238 6.24295 25.5442 12.3445C30.101 18.495 31.1153 26.4277 28.8039 32.4503L30.6711 33.1669C33.2444 26.4618 32.0862 17.8148 27.1512 11.1539C22.1799 4.44386 13.4211 -0.204517 0.904322 0.998583L1.09568 2.98941Z" fill="#0B69F5"/>
</svg>
