<svg width="116" height="120" viewBox="0 0 116 120" fill="none" xmlns="http://www.w3.org/2000/svg">
<g clip-path="url(#clip0_0_313)">
<path d="M22.4255 71.196C17.9326 71.196 14.2718 74.8569 14.2718 79.3498V88.906H30.5555V79.3498C30.5555 74.8331 26.9184 71.196 22.4255 71.196Z" fill="white"/>
<path d="M90.1502 63.5416C89.3895 64.017 88.4148 64.017 87.6541 63.5416C73.1058 54.6509 63.4544 45.3561 63.4544 27.1469V19.9441H13.9378C13.2722 19.9441 12.7492 20.4671 12.7492 21.1327V68.1533C15.3403 65.9187 18.7159 64.54 22.4243 64.54C30.578 64.54 37.2341 71.1723 37.2341 79.3498V88.9061H40.8237C42.0123 88.9061 42.9631 89.8569 42.9631 91.0455V109.825H92.2183C92.8839 109.825 93.4069 109.302 93.4069 108.637V61.4734C92.3372 62.1628 91.2437 62.8522 90.1502 63.5416Z" fill="white"/>
<path d="M64.7643 12.7172C63.956 13.1214 63.4568 13.9534 63.4568 14.8329V27.1467C63.4568 45.3321 73.1319 54.6269 87.6565 63.5413C88.4172 64.0168 89.3918 64.0168 90.1525 63.5413C104.677 54.6269 114.352 45.3321 114.352 27.1467V14.8329C114.352 13.9296 113.853 13.0976 113.045 12.7172L89.9624 1.16415C89.2968 0.83135 88.5123 0.83135 87.8467 1.16415L64.7643 12.7172Z" fill="#F0F4F5"/>
<path d="M88.7981 45.8313C97.7782 45.8313 105.058 38.5515 105.058 29.5714C105.058 20.5913 97.7782 13.3115 88.7981 13.3115C79.818 13.3115 72.5382 20.5913 72.5382 29.5714C72.5382 38.5515 79.818 45.8313 88.7981 45.8313Z" fill="#2681FF"/>
<path d="M14.5097 88.6446V79.3261C14.5097 74.9759 18.0516 71.4101 22.4257 71.4101C26.7997 71.4101 30.3417 74.9521 30.3417 79.3261V88.6446H37.4732V79.3261C37.4732 71.0298 30.7458 64.2786 22.4257 64.2786C14.1055 64.2786 7.37811 71.0298 7.37811 79.3261V88.6446H14.5097Z" fill="white"/>
<path d="M40.8037 119.072H4.02873C2.72128 119.072 1.65155 118.003 1.65155 116.695V91.0217C1.65155 89.7143 2.72128 88.6445 4.02873 88.6445H40.8037C42.1111 88.6445 43.1809 89.7143 43.1809 91.0217V116.695C43.1809 118.003 42.1111 119.072 40.8037 119.072Z" fill="#F0F4F5"/>
<path d="M4.02614 120C2.19571 120 0.721863 118.526 0.721863 116.695V91.0217C0.721863 89.1913 2.19571 87.7174 4.02614 87.7174H6.45086V79.326C6.45086 74.9282 8.30506 70.6493 11.5618 67.654L11.8233 67.3925V21.1326C11.8233 19.9678 12.7742 19.0169 13.939 19.0169H28.2971C28.8201 19.0169 29.2242 19.4211 29.2242 19.944C29.2242 20.467 28.8201 20.8711 28.2971 20.8711H13.6775V65.9187L14.9374 65.2531C17.2195 64.0407 19.8106 63.3751 22.4255 63.3751C27.4414 63.3751 32.0531 65.6572 35.1196 69.6746L35.3811 70.0074H56.3479C56.8708 70.0074 57.275 70.4353 57.275 70.9345C57.275 71.4337 56.8708 71.8616 56.3479 71.8616H36.5935L37.1165 73.0502C37.7821 74.5716 38.1862 76.1881 38.3288 77.8759L38.4002 78.6604H73.8201C74.3431 78.6604 74.7472 79.0883 74.7472 79.5875C74.7472 80.0867 74.3193 80.5146 73.8201 80.5146H38.4002V87.2895H73.8201C74.3431 87.2895 74.7472 87.7174 74.7472 88.2166C74.7472 88.7158 74.3193 89.1437 73.8201 89.1437H43.725L44.0103 90.2135C44.0816 90.4987 44.1292 90.7602 44.1292 91.0455V96.3941C44.1292 96.9171 43.725 97.3212 43.2021 97.3212C42.6791 97.3212 42.275 96.8933 42.275 96.3941V91.0455C42.275 90.2372 41.6331 89.5954 40.8249 89.5954H4.02614C3.2179 89.5954 2.57606 90.2372 2.57606 91.0455V116.719C2.57606 117.527 3.2179 118.169 4.02614 118.169H40.8011C41.6093 118.169 42.2512 117.527 42.2512 116.719V104.714C42.2512 104.191 42.6553 103.787 43.1783 103.787C43.7013 103.787 44.1054 104.215 44.1054 104.714V108.874H92.4572V63.1849C92.4572 63.1849 90.7694 64.2309 90.603 64.326C90.08 64.635 89.4857 64.8252 88.8677 64.8252C88.2496 64.8252 87.6553 64.6588 87.1323 64.326C81.6886 60.9979 77.4572 57.8838 74.1767 54.7935L73.939 54.5558H49.6918C49.1688 54.5558 48.7647 54.1517 48.7647 53.6287C48.7647 53.1057 49.1688 52.7016 49.6918 52.7016H72.0848L70.8962 51.299C70.3494 50.6572 69.8502 50.0154 69.3748 49.3735C68.6616 48.3989 67.9723 47.3767 67.3542 46.3307L67.1165 45.9028H32.3383C31.8154 45.9028 31.4112 45.4987 31.4112 44.9757C31.4112 44.4528 31.8154 44.0486 32.3383 44.0486H66.0943L65.5713 42.8601C64.8819 41.2673 64.2876 39.6033 63.836 37.9155L63.6696 37.2737H32.3383C31.8154 37.2737 31.4112 36.8696 31.4112 36.3466C31.4112 35.8236 31.8154 35.4195 32.3383 35.4195H63.2654L63.099 34.4211C62.7187 32.1152 62.5285 29.6667 62.5285 27.1231V20.8711H36.6173C36.0943 20.8711 35.6902 20.467 35.6902 19.944C35.6902 19.4211 36.0943 19.0169 36.6173 19.0169H62.5285V14.8331C62.5285 13.5732 63.2179 12.4322 64.359 11.8854L87.4414 0.356089C87.893 0.118371 88.416 -0.000488281 88.9152 -0.000488281C89.4144 -0.000488281 89.9374 0.118371 90.3891 0.356089L113.448 11.8854C114.565 12.4559 115.278 13.5732 115.278 14.8331V27.1469C115.278 35.8949 113.044 43.1691 108.456 49.3735C105.294 53.6287 100.92 57.551 94.7155 61.7111L94.3352 61.9726V108.613C94.3352 109.778 93.3843 110.729 92.2195 110.729H44.1054V116.695C44.1054 118.526 42.6315 120 40.8011 120H4.02614ZM22.4255 70.4829C27.2987 70.4829 31.2686 74.4528 31.2686 79.326V87.7174H36.546V79.326C36.546 71.5526 30.2227 65.2055 22.4255 65.2055C14.6521 65.2055 8.30506 71.5288 8.30506 79.326V87.7174H13.5824V79.326C13.5824 74.4528 17.5523 70.4829 22.4255 70.4829ZM22.4255 72.3608C18.5745 72.3608 15.4366 75.4987 15.4366 79.3497V87.7174H29.3906V79.326C29.3906 75.475 26.2765 72.3608 22.4255 72.3608ZM88.8914 1.85371C88.6775 1.85371 88.4398 1.90125 88.2496 1.99634L65.1672 13.5494C64.668 13.7872 64.359 14.2864 64.359 14.8569V27.1707C64.359 44.7143 73.4635 53.7951 88.1307 62.7808C88.3685 62.9234 88.6299 62.9948 88.8914 62.9948C89.1529 62.9948 89.4144 62.9234 89.6521 62.7808C104.319 53.7951 113.424 44.7143 113.424 27.1707V14.8569C113.424 14.3101 113.115 13.8109 112.616 13.5494L89.5571 1.99634C89.3431 1.90125 89.1292 1.85371 88.8914 1.85371Z" fill="#4C5259"/>
<path d="M87.939 35.1818C87.7013 35.1818 87.4636 35.0867 87.2734 34.9203L81.9248 29.5717C81.7584 29.4053 81.6633 29.1675 81.6633 28.9061C81.6633 28.6446 81.7584 28.4306 81.9248 28.2404C82.0912 28.074 82.3289 27.979 82.5904 27.979C82.8281 27.979 83.0658 28.074 83.256 28.2404L87.939 32.9235L95.5698 25.2927C95.7362 25.1263 95.9739 25.0312 96.2354 25.0312C96.4969 25.0312 96.7108 25.1263 96.901 25.2927C97.0912 25.4591 97.1625 25.6969 97.1625 25.9583C97.1625 26.2198 97.0674 26.4338 96.901 26.624L88.6046 34.9203C88.4382 35.0867 88.2005 35.1818 87.939 35.1818Z" fill="white"/>
<path d="M32.3372 54.5559C31.8142 54.5559 31.4101 54.1517 31.4101 53.6288C31.4101 53.1058 31.8142 52.7017 32.3372 52.7017H42.559C43.082 52.7017 43.4861 53.1058 43.4861 53.6288C43.4861 54.1517 43.082 54.5559 42.559 54.5559H32.3372Z" fill="#4C5259"/>
<path d="M32.3372 63.2087C31.8142 63.2087 31.4101 62.7808 31.4101 62.2816C31.4101 61.7824 31.8142 61.3545 32.3372 61.3545H73.8189C74.3419 61.3545 74.746 61.7824 74.746 62.2816C74.746 62.7808 74.3181 63.2087 73.8189 63.2087H32.3372Z" fill="#4C5259"/>
<path d="M62.7661 71.8378C62.2432 71.8378 61.8391 71.4099 61.8391 70.9107C61.8391 70.4115 62.2669 69.9836 62.7661 69.9836H73.82C74.343 69.9836 74.7471 70.4115 74.7471 70.9107C74.7471 71.4099 74.3192 71.8378 73.82 71.8378H62.7661Z" fill="#4C5259"/>
</g>
<defs>
<clipPath id="clip0_0_313">
<rect width="114.556" height="120" fill="white" transform="translate(0.721863 -0.000488281)"/>
</clipPath>
</defs>
</svg>
