<svg width="134" height="32" viewBox="0 0 134 32" fill="none" xmlns="http://www.w3.org/2000/svg">
<path fill-rule="evenodd" clip-rule="evenodd" d="M125.9 22.9697C127.395 20.621 128.255 17.8107 128.227 14.7969C128.151 6.75612 121.719 0.21818 113.869 0.199744C105.802 0.181309 99.2548 6.99578 99.447 15.2976C99.6306 23.2079 105.938 29.5888 113.664 29.6817C114.859 29.6964 116.023 29.56 117.138 29.2908C117.266 29.2599 117.311 29.0969 117.218 29.0018L112.903 24.5824C112.32 23.9844 111.614 23.5316 110.841 23.2374C107.551 21.9882 105.2 18.7406 105.2 14.9414C105.2 9.9484 109.261 5.90809 114.177 6.10277C118.685 6.28196 122.32 10.031 122.466 14.6494C122.511 16.0778 122.223 17.4339 121.676 18.6433L120.125 17.0549C119.453 16.3669 118.659 15.8322 117.796 15.4731C116.099 14.721 114.102 14.2918 112.183 14.2461C110.963 14.2166 109.704 14.3006 108.369 14.4584L108.361 14.4592C108.057 14.5005 107.936 14.8876 108.153 15.1096L121.926 29.2178C122.609 29.9162 123.419 30.4538 124.299 30.807C125.98 31.5363 127.946 31.9514 129.836 31.9942C131.055 32.0222 132.314 31.9374 133.649 31.7789C133.778 31.7627 133.872 31.7081 133.934 31.624C134.039 31.4824 134.014 31.2804 133.893 31.155L125.9 22.9697Z" fill="#0089FF"/>
<path fill-rule="evenodd" clip-rule="evenodd" d="M93.3232 0.752456C92.6486 0.461176 91.9273 0.223728 91.1469 0.0106142C91.0057 -0.0269941 90.9057 0.0378986 90.8438 0.164734C90.8344 0.183907 90.8301 0.20603 90.8301 0.227415V29.6378C90.8301 29.6599 90.8344 29.6813 90.8438 29.7005C90.9057 29.8281 91.0057 29.893 91.1469 29.8546C91.9273 29.6415 92.6486 29.4041 93.3232 29.1128C94.5313 28.5922 95.6803 27.767 96.5032 26.829C96.5774 26.7449 96.5896 26.6793 96.5896 26.638V3.22723C96.5896 3.18667 96.5774 3.12104 96.5032 3.03697C95.6803 2.09824 94.5313 1.27307 93.3232 0.752456" fill="#0089FF"/>
<path fill-rule="evenodd" clip-rule="evenodd" d="M8.06621 8.71183C6.19581 8.71183 4.55938 9.11004 3.1951 9.70808V1.70121C3.1951 1.42247 3.03959 1.26318 2.72785 1.26318H0.429085C0.156227 1.26318 0 1.42247 0 1.70121V29.3049C0 29.5837 0.156227 29.7437 0.429085 29.7437H2.72785C3.03959 29.7437 3.1951 29.5837 3.1951 29.3049V12.6946C4.44275 12.0575 6.15693 11.6593 7.87111 11.6593C11.3787 11.6593 13.3657 13.213 13.3657 17.5151V29.3049C13.3657 29.5837 13.5212 29.7437 13.7941 29.7437H16.0928C16.4046 29.7437 16.5608 29.5837 16.5608 29.3049V17.3949C16.5608 11.2213 12.8977 8.71183 8.06621 8.71183" fill="white"/>
<path fill-rule="evenodd" clip-rule="evenodd" d="M34.0562 22.374C34.0562 25.3613 32.185 27.2734 28.6782 27.2734C25.2102 27.2734 23.3398 25.3613 23.3398 22.374V16.6384C23.3398 13.6113 25.2102 11.6594 28.6782 11.6594C32.185 11.6594 34.0562 13.6113 34.0562 16.6384V22.374ZM28.6798 8.71191C23.4199 8.71191 20.1074 11.9779 20.1074 16.6384V22.374C20.1074 27.0345 23.4199 30.1811 28.6798 30.1811C33.98 30.1811 37.2521 27.0345 37.2521 22.374V16.6384C37.2521 11.9779 33.98 8.71191 28.6798 8.71191V8.71191Z" fill="white"/>
<path fill-rule="evenodd" clip-rule="evenodd" d="M59.5892 8.71191C57.2515 8.71191 55.4589 9.38886 53.5885 10.6639C52.2249 9.42868 50.3934 8.71191 48.0161 8.71191C45.6389 8.71191 43.379 9.30922 41.3135 10.2649C41.0406 10.3851 40.9629 10.5842 40.9629 10.8231V29.305C40.9629 29.5838 41.1191 29.7438 41.392 29.7438H43.6907C44.0032 29.7438 44.158 29.5838 44.158 29.305V12.3761C45.2494 11.9779 46.4956 11.6594 48.0939 11.6594C51.2501 11.6594 52.7699 13.3724 52.7699 16.7579V29.305C52.7699 29.5838 52.9261 29.7438 53.199 29.7438H55.5366C55.8095 29.7438 55.965 29.5838 55.965 29.305V16.7977C55.965 15.3642 55.6922 14.0493 55.2249 13.0133C56.3941 12.177 57.8743 11.6594 59.5114 11.6594C62.862 11.6594 64.4603 13.5715 64.4603 16.7579V29.305C64.4603 29.5838 64.6158 29.7438 64.9276 29.7438H67.2263C67.4992 29.7438 67.6554 29.5838 67.6554 29.305V16.8375C67.6554 11.5399 64.3437 8.71191 59.5892 8.71191" fill="white"/>
<path fill-rule="evenodd" clip-rule="evenodd" d="M84.5493 18.3115H74.4961V16.6383C74.4961 13.213 76.5998 11.6592 79.5227 11.6592C82.3672 11.6592 84.5493 13.2528 84.5493 16.6383V18.3115ZM79.525 8.71191C75.2377 8.71191 71.2637 11.1815 71.2637 16.6384V22.6926C71.2637 27.7122 75.2773 30.1818 79.4861 30.1818C82.759 30.1818 85.2528 28.9865 87.2017 27.314C87.435 27.1149 87.4746 26.9151 87.2788 26.6761L86.1492 25.163C85.9937 24.9233 85.7597 24.8842 85.5257 25.0428C84.0844 26.1983 82.2528 27.2734 79.5631 27.2734C76.6798 27.2734 74.4984 25.6806 74.4984 22.6926V21.0201H87.2399C87.5127 21.0201 87.669 20.8609 87.669 20.5423V16.6384C87.669 11.1815 83.7719 8.71191 79.525 8.71191V8.71191Z" fill="white"/>
</svg>
