<svg width="20" height="20" viewBox="0 0 20 20" fill="none" xmlns="http://www.w3.org/2000/svg">
<path d="M15.8333 0.832764H4.16667C3.062 0.834087 2.00296 1.2735 1.22185 2.05461C0.440735 2.83573 0.00132321 3.89477 0 4.99943L0 14.9994C0.00132321 16.1041 0.440735 17.1631 1.22185 17.9443C2.00296 18.7254 3.062 19.1648 4.16667 19.1661H15.8333C16.938 19.1648 17.997 18.7254 18.7782 17.9443C19.5593 17.1631 19.9987 16.1041 20 14.9994V4.99943C19.9987 3.89477 19.5593 2.83573 18.7782 2.05461C17.997 1.2735 16.938 0.834087 15.8333 0.832764ZM4.16667 2.49943H15.8333C16.3323 2.50041 16.8196 2.65069 17.2325 2.93093C17.6453 3.21117 17.9649 3.60855 18.15 4.07193L11.7683 10.4544C11.2987 10.9222 10.6628 11.1848 10 11.1848C9.33715 11.1848 8.70131 10.9222 8.23167 10.4544L1.85 4.07193C2.03512 3.60855 2.35468 3.21117 2.76754 2.93093C3.1804 2.65069 3.66768 2.50041 4.16667 2.49943ZM15.8333 17.4994H4.16667C3.50363 17.4994 2.86774 17.236 2.3989 16.7672C1.93006 16.2984 1.66667 15.6625 1.66667 14.9994V6.24943L7.05333 11.6328C7.83552 12.413 8.89521 12.8511 10 12.8511C11.1048 12.8511 12.1645 12.413 12.9467 11.6328L18.3333 6.24943V14.9994C18.3333 15.6625 18.0699 16.2984 17.6011 16.7672C17.1323 17.236 16.4964 17.4994 15.8333 17.4994Z" fill="#BBC5D8"/>
</svg>
