<svg width="14" height="20" viewBox="0 0 14 20" fill="none" xmlns="http://www.w3.org/2000/svg">
<path d="M9.5 -0.000488281H4.50001C3.39534 0.000834933 2.33631 0.440247 1.55519 1.22136C0.774078 2.00248 0.334667 3.06152 0.333344 4.16618V15.8328C0.334667 16.9375 0.774078 17.9965 1.55519 18.7777C2.33631 19.5588 3.39534 19.9982 4.50001 19.9995H9.5C10.6047 19.9982 11.6637 19.5588 12.4448 18.7777C13.2259 17.9965 13.6653 16.9375 13.6667 15.8328V4.16618C13.6653 3.06152 13.2259 2.00248 12.4448 1.22136C11.6637 0.440247 10.6047 0.000834933 9.5 -0.000488281V-0.000488281ZM4.50001 1.66618H9.5C10.163 1.66618 10.7989 1.92957 11.2678 2.39841C11.7366 2.86725 12 3.50314 12 4.16618V13.3328H2.00001V4.16618C2.00001 3.50314 2.2634 2.86725 2.73224 2.39841C3.20108 1.92957 3.83697 1.66618 4.50001 1.66618ZM9.5 18.3328H4.50001C3.83697 18.3328 3.20108 18.0695 2.73224 17.6006C2.2634 17.1318 2.00001 16.4959 2.00001 15.8328V14.9995H12V15.8328C12 16.4959 11.7366 17.1318 11.2678 17.6006C10.7989 18.0695 10.163 18.3328 9.5 18.3328Z" fill="#BBC5D8"/>
</svg>
