<svg width="20" height="20" viewBox="0 0 20 20" fill="none" xmlns="http://www.w3.org/2000/svg">
<g clip-path="url(#clip0_2156_154)">
<path d="M10 9.99951C10.9889 9.99951 11.9556 9.70627 12.7779 9.15686C13.6001 8.60745 14.241 7.82656 14.6194 6.91293C14.9978 5.9993 15.0969 4.99397 14.9039 4.02406C14.711 3.05416 14.2348 2.16324 13.5355 1.46398C12.8363 0.764717 11.9454 0.288514 10.9755 0.0955876C10.0055 -0.0973385 9.00021 0.00167815 8.08658 0.380116C7.17295 0.758554 6.39206 1.39942 5.84265 2.22166C5.29324 3.04391 5 4.01061 5 4.99951C5.00132 6.32519 5.52853 7.59619 6.46593 8.53359C7.40332 9.47098 8.67432 9.99819 10 9.99951ZM10 1.66618C10.6593 1.66618 11.3037 1.86168 11.8519 2.22795C12.4001 2.59422 12.8273 3.11482 13.0796 3.7239C13.3319 4.33299 13.3979 5.00321 13.2693 5.64982C13.1407 6.29642 12.8232 6.89036 12.357 7.35654C11.8908 7.82271 11.2969 8.14018 10.6503 8.2688C10.0037 8.39742 9.33348 8.3314 8.72439 8.07911C8.1153 7.82682 7.59471 7.39958 7.22844 6.85141C6.86216 6.30325 6.66667 5.65878 6.66667 4.99951C6.66667 4.11546 7.01786 3.26761 7.64298 2.64249C8.2681 2.01737 9.11595 1.66618 10 1.66618Z" fill="#BBC5D8"/>
<path d="M10 11.6663C8.01155 11.6685 6.10518 12.4593 4.69914 13.8654C3.29309 15.2714 2.50221 17.1778 2.5 19.1663C2.5 19.3873 2.5878 19.5992 2.74408 19.7555C2.90036 19.9118 3.11232 19.9996 3.33333 19.9996C3.55435 19.9996 3.76631 19.9118 3.92259 19.7555C4.07887 19.5992 4.16667 19.3873 4.16667 19.1663C4.16667 17.6192 4.78125 16.1354 5.87521 15.0415C6.96917 13.9475 8.4529 13.3329 10 13.3329C11.5471 13.3329 13.0308 13.9475 14.1248 15.0415C15.2188 16.1354 15.8333 17.6192 15.8333 19.1663C15.8333 19.3873 15.9211 19.5992 16.0774 19.7555C16.2337 19.9118 16.4457 19.9996 16.6667 19.9996C16.8877 19.9996 17.0996 19.9118 17.2559 19.7555C17.4122 19.5992 17.5 19.3873 17.5 19.1663C17.4978 17.1778 16.7069 15.2714 15.3009 13.8654C13.8948 12.4593 11.9884 11.6685 10 11.6663Z" fill="#BBC5D8"/>
</g>
<defs>
<clipPath id="clip0_2156_154">
<rect width="20" height="20" fill="white" transform="translate(0 -0.000488281)"/>
</clipPath>
</defs>
</svg>
