<svg width="180" height="8" viewBox="0 0 180 8" fill="none" xmlns="http://www.w3.org/2000/svg">
<g clip-path="url(#clip0_0_248)">
<path d="M179.524 3.19964C179.762 3.08616 180.429 2.96134 179.428 2.84786C177.38 2.60956 175.188 2.39396 172.091 2.2351C171.329 2.2124 170.519 2.17836 169.757 2.15566C168.661 2.08758 167.517 2.03084 166.421 1.96276C165.469 1.94006 164.516 1.91737 163.563 1.88332C163.277 1.89467 162.943 1.90602 162.657 1.91737C162.038 1.88332 161.276 1.88332 160.752 1.83793C160.371 1.83793 159.989 1.83793 159.608 1.83793C158.036 1.7585 156.273 1.79254 154.606 1.7812C153.129 1.71311 151.509 1.7585 149.936 1.74715C148.984 1.7585 148.078 1.76985 147.125 1.7812C146.935 1.7812 146.744 1.7812 146.554 1.76985C146.363 1.74715 146.125 1.71311 145.934 1.69042C145.934 1.67907 145.934 1.65637 145.982 1.64503C145.744 1.59964 145.696 1.56559 145.887 1.50886C146.697 1.29325 147.173 1.0663 146.03 0.839352C144.981 0.635097 144.743 0.612402 141.98 0.657792C141.789 0.657792 141.313 0.646444 141.265 0.635097C140.693 0.453536 138.407 0.396799 136.834 0.283324C135.31 0.271976 133.88 0.215239 132.356 0.237934C131.546 0.101763 129.831 0.124458 128.354 0.101763C127.21 0.0109833 125.543 0.0904159 124.352 0.0109833C123.208 0.0109833 122.112 0.0109833 120.969 0.0109833C120.588 0.0109833 120.206 0.0109833 119.825 0.0109833C119.635 0.0109833 119.444 0.0109833 119.254 0.0109833C119.063 0.0109833 118.872 0.0109833 118.682 0.0109833C117.729 0.0109833 116.824 0.0109833 115.871 0.0109833C113.584 0.0563733 111.345 -0.0911444 109.058 -0.000364242C108.343 0.0223308 108.01 0.101763 106.961 0.0790684C104.293 -0.000364242 101.816 0.0563733 99.4336 0.147153C97.766 0.158501 95.3838 0.0790684 95.4791 0.317366C95.0979 0.317366 94.7168 0.317366 94.288 0.317366C93.3351 0.283324 92.3822 0.260629 91.477 0.226586C90.7147 0.237934 89.9524 0.260629 89.2377 0.271976C88.6183 0.271976 87.9989 0.260629 87.5225 0.306019C86.9984 0.374104 84.8544 0.215239 85.2832 0.408146C85.2832 0.442189 85.2832 0.464884 85.2832 0.498926C83.2345 0.555664 80.8523 0.510274 79.0418 0.623749C78.8512 0.623749 78.7083 0.623749 78.5177 0.635097C77.8507 0.623749 77.2313 0.623749 76.7549 0.669139C72.8957 0.703182 69.1318 0.771267 65.4156 0.8507C65.225 0.8507 65.0344 0.8507 64.8915 0.862047C64.5103 0.8507 64.1292 0.8507 63.7004 0.839352C62.9857 0.816657 62.5569 0.873395 62.0328 0.884742C60.8894 0.918785 59.7935 0.952827 58.6501 0.98687C57.9831 0.975522 57.3637 0.975522 56.9349 1.02091C55.7914 1.07765 54.505 1.0663 53.5045 1.13439C53.1233 1.13439 52.7422 1.14573 52.361 1.14573C49.6453 1.17978 46.9772 1.22517 44.4521 1.31595C44.2615 1.31595 44.0709 1.31595 43.8804 1.31595C43.1657 1.33864 42.4034 1.36134 41.6887 1.38403C40.7835 1.37269 40.4023 1.47481 39.4494 1.45212C39.0206 1.45212 38.6395 1.46347 38.2583 1.47481C37.0196 1.50886 36.1143 1.5429 37.0196 1.65637C36.829 1.66772 36.6384 1.69042 36.4479 1.70176C35.7808 1.66772 35.0662 1.65637 34.3039 1.66772C31.874 1.71311 29.4918 1.76985 27.3954 1.88332C25.7755 1.92871 23.9651 1.94006 22.3452 2.08758C24.775 2.06488 26.4902 2.01949 28.0148 1.92871C28.7771 1.96276 28.8248 2.03084 29.1106 2.09893C28.1578 2.14432 27.2049 2.18971 26.252 2.2351C25.6803 2.25779 24.7274 2.2124 24.3462 2.28049C23.6316 2.26914 23.0122 2.29183 22.4404 2.32588C20.2488 2.31453 21.4399 2.50744 20.0582 2.54148C19.2483 2.54148 18.2478 2.55283 18.2001 2.63226C18.1525 2.80247 16.6755 2.85921 15.0556 2.9046C14.4839 2.91595 13.9121 2.92729 13.3404 2.94999C12.2922 2.92729 11.7681 3.00673 11.0058 3.02942C10.2912 3.07481 8.95712 3.04077 8.52832 3.1429C10.4817 3.21098 12.4352 3.13155 14.2933 3.15425C14.2933 3.26772 12.6734 3.30176 12.1969 3.39254C11.244 3.36985 10.7676 3.41524 10.3864 3.47198C9.62414 3.51737 8.95712 3.56276 8.14717 3.5968C7.95659 3.5968 7.76601 3.5968 7.57544 3.5968C6.43197 3.60815 5.47909 3.64219 4.28798 3.73297C5.57438 3.72162 6.43197 3.75566 7.05135 3.68758C7.67073 3.69893 8.48068 3.69893 7.62308 3.76701C7.09899 3.80105 6.47962 3.8351 5.86024 3.85779C4.28798 3.88049 3.04923 3.94857 1.57226 4.01666C2.76337 4.0507 3.66861 4.08474 4.71678 4.08474C5.3838 4.06205 5.66967 4.06205 5.86024 4.07339C5.47909 4.06205 5.05029 4.0507 4.71678 4.08474C6.47962 4.13013 4.5262 4.17552 4.71678 4.22091C4.5262 4.23226 4.28798 4.24361 4.09741 4.25495C2.57279 4.25495 1.19111 4.27765 0 4.36843C1.71519 4.32304 3.57332 4.34573 5.33616 4.32304C5.86024 4.32304 6.47962 4.31169 7.00371 4.30034C8.14717 4.289 9.29063 4.27765 10.4817 4.25495C11.4346 4.289 12.3399 4.2663 13.2927 4.25495C13.8645 4.2663 14.4362 4.27765 15.0079 4.25495C15.2938 4.27765 15.7226 4.289 16.1038 4.30034L16.0561 4.289C16.1514 4.289 16.199 4.289 16.2943 4.289C16.2467 4.289 16.1514 4.289 16.1038 4.30034C16.1038 4.31169 16.1038 4.33439 16.1038 4.34573C15.532 4.34573 14.9603 4.34573 14.4362 4.34573C12.6734 4.39112 14.6268 4.43651 14.4362 4.4819C13.1975 4.49325 11.9587 4.45921 10.2435 4.51595C12.2446 4.56134 14.198 4.5046 14.9603 4.65212C14.0551 4.67481 12.8163 4.66347 12.4352 4.7429C12.2922 4.78829 13.2927 4.81098 13.8168 4.83368C14.0074 4.84503 14.1503 4.86772 14.3409 4.87907C13.7692 4.89042 13.0545 4.87907 12.6734 4.92446C11.3393 4.90176 10.1959 4.99254 8.81419 4.96985C8.00424 4.96985 7.28957 4.9812 7.24193 5.06063C7.19428 5.10602 7.71837 5.12871 8.19481 5.11737C10.577 5.06063 13.1975 5.15141 15.532 5.06063C16.0085 5.04928 16.4373 5.06063 16.6755 5.09467C14.1503 5.1968 11.4346 5.21949 8.76654 5.26488C8.14717 5.28758 7.52779 5.31027 6.43197 5.34432C7.57544 5.34432 8.2901 5.34432 9.00476 5.32162C9.19534 5.33297 9.48121 5.32162 9.81472 5.31027C12.054 5.26488 14.3409 5.21949 16.5802 5.18545C16.6278 5.21949 16.5802 5.24219 16.199 5.26488C15.532 5.28758 14.9127 5.31027 14.1503 5.33297C15.0556 5.36701 16.0561 5.33297 16.6755 5.38971C15.3415 5.42375 14.0074 5.45779 12.721 5.50318C12.7687 5.51453 12.8639 5.52588 13.0069 5.52588C13.0545 5.52588 13.1498 5.52588 13.2451 5.53722C15.1509 5.628 17.0566 5.55992 18.9148 5.52588C18.6289 5.59396 21.6781 5.628 18.6765 5.71878C20.5347 5.70744 21.7734 5.68474 22.8692 5.628C23.3933 5.61666 23.8698 5.628 24.1556 5.67339C23.7268 5.68474 23.3457 5.69609 22.9169 5.71878C21.7734 5.75283 20.3917 5.76417 19.4865 5.84361C18.9148 5.84361 17.9142 5.84361 17.9142 5.85495C17.5807 6.05921 15.1032 5.96843 13.9598 6.03651C14.3409 6.19538 16.6755 6.1046 17.7713 6.19538C17.4378 6.25212 16.0561 6.19538 16.0561 6.28616C15.532 6.30886 14.9603 6.3429 14.3886 6.36559C12.7687 6.3429 12.4828 6.39964 13.2451 6.50176C13.0545 6.50176 12.9116 6.50176 12.721 6.50176C10.5294 6.47907 8.52832 6.54715 6.43197 6.56985C8.2901 6.61524 10.3388 6.5585 12.1493 6.63793C12.5304 6.63793 12.8639 6.63793 13.2451 6.63793C13.8168 6.67198 13.0545 6.7741 14.3886 6.76276C15.7226 6.74006 17.0566 6.72871 18.3907 6.70602C20.1535 6.72871 21.8211 6.68332 23.5363 6.66063C23.7268 6.66063 23.8698 6.67198 24.0604 6.67198C24.2509 6.74006 23.1075 6.74006 22.9169 6.78545C23.5839 6.80815 24.2033 6.80815 24.6321 6.76276C25.8232 6.74006 26.8714 6.7968 28.0148 6.80815C27.4431 6.83084 26.919 6.86488 26.3473 6.88758C26.1567 6.87623 25.9185 6.86488 25.7279 6.85354C24.8703 6.91027 23.8221 6.85354 22.9645 6.88758C22.7263 6.88758 22.4881 6.89893 22.2499 6.89893C19.8677 6.88758 19.8677 6.88758 20.1059 6.97836C21.4876 7.06914 23.0598 7.0124 24.5844 7.02375C25.3467 7.06914 26.1091 7.11453 26.919 7.15992C27.586 7.19396 26.9667 7.21666 26.8237 7.2507C24.9179 7.27339 22.8216 7.21666 21.0111 7.30744C21.8687 7.40956 23.298 7.30744 24.0604 7.38687C24.2509 7.40956 24.4415 7.44361 24.5844 7.4663C23.0598 7.489 21.4399 7.44361 19.82 7.50034C20.3917 7.56843 21.1064 7.55708 21.7258 7.56843C22.6787 7.53439 23.6792 7.53439 24.6321 7.56843C25.2991 7.62517 22.8216 7.60247 23.9651 7.6819C23.2028 7.6819 22.4404 7.6819 21.6781 7.69325C22.9645 7.72729 24.2986 7.73864 25.6326 7.74999C25.8232 7.74999 26.0138 7.76134 26.2043 7.76134C28.4913 7.77269 30.8258 7.77268 33.1128 7.77268C33.5416 7.78403 33.9227 7.79538 34.3039 7.80673C35.2567 7.80673 36.0191 7.88616 37.0672 7.85212C38.7824 7.88616 40.4976 7.90885 42.2128 7.9429C43.1657 7.9429 44.1186 7.95425 45.0715 7.95425C45.9291 8.02233 46.9772 7.97694 47.9778 7.98829C49.4547 7.98829 50.9317 7.98829 52.4087 7.98829C53.7427 7.97694 55.1721 8.02233 56.4108 7.95425C58.4595 7.90886 60.6988 7.98829 62.6522 7.89751C63.3669 7.89751 64.1292 7.88616 64.8438 7.88616C65.2726 7.82942 65.9397 7.85212 66.559 7.85212C67.8454 7.85212 69.1318 7.85212 70.4182 7.85212C71.3235 7.81808 72.2763 7.84077 73.2292 7.82942C73.3722 7.81808 73.5151 7.82942 73.658 7.81807C73.7533 7.81807 73.8486 7.81807 73.9439 7.81807C75.6114 7.77268 77.5172 7.85212 79.0895 7.76134C79.7565 7.76134 80.4712 7.76134 81.1382 7.76134C82.1387 7.76134 83.2345 7.79538 84.1398 7.72729C85.4262 7.72729 86.7602 7.71595 88.0466 7.71595C89.7618 7.7046 91.5246 7.74999 93.1445 7.6819C94.6691 7.6819 96.1461 7.67056 97.6707 7.67056C98.9571 7.62517 100.434 7.67056 101.72 7.63651V7.62517C104.722 7.62517 107.771 7.62517 110.773 7.62517C112.059 7.62517 113.346 7.62517 114.632 7.62517C121.159 7.62517 127.687 7.62517 134.166 7.62517C137.549 7.62517 140.884 7.62517 144.267 7.62517C145.029 7.62517 145.791 7.63651 146.601 7.63651C147.697 7.71595 148.936 7.67056 150.127 7.6819C151.413 7.6819 152.7 7.6819 154.034 7.69325C155.273 7.77269 156.702 7.71595 157.988 7.73864C161.085 7.72729 164.325 7.77269 167.088 7.61382C167.47 7.61382 167.803 7.61382 168.184 7.60247C168.994 7.57978 169.661 7.53439 170.471 7.52304C171.233 7.489 171.805 7.45495 172.186 7.38687C174.283 7.29609 174.044 7.13722 174.378 6.98971C175.855 6.72871 174.044 6.46772 174.95 6.20673C174.95 6.19538 174.95 6.17268 174.95 6.16134C175.045 6.03651 174.664 5.92304 173.854 5.80956C173.806 5.79822 173.806 5.77552 173.759 5.76417C173.949 5.69609 173.663 5.63935 173.235 5.59396C173.187 5.51453 173.616 5.4351 172.758 5.36701C171.424 5.27623 170.042 5.1968 168.708 5.10602C168.375 5.08332 167.994 5.07198 167.66 5.04928C167.279 5.03793 166.945 5.01524 166.612 5.00389C166.04 4.9585 165.469 4.92446 164.849 4.87907C164.849 4.86772 164.849 4.85637 164.801 4.83368C164.42 4.70886 166.136 4.69751 166.517 4.60673C166.898 4.59538 167.279 4.58403 167.66 4.56134C169.947 4.53864 172.282 4.60673 174.473 4.52729C175.045 4.47056 175.76 4.43651 176.665 4.4819C176.855 4.47056 177.094 4.45921 177.284 4.43651C178.428 4.43651 178.428 4.36843 178.38 4.30034C178.38 4.2663 178.38 4.24361 178.38 4.20956C178.428 4.17552 179.047 4.15283 178.428 4.11878C180.762 3.8351 179.857 3.51737 179.524 3.19964ZM87.9037 7.53439C88.2372 7.54573 88.3801 7.53439 88.666 7.54573C88.523 7.54573 88.4277 7.55708 88.3325 7.55708C88.1895 7.54573 88.0942 7.54573 87.9037 7.53439ZM28.5866 7.72729C29.73 7.72729 30.8258 7.72729 31.9693 7.72729C30.8258 7.69325 29.6824 7.67056 28.5866 7.72729ZM29.4918 7.62517C29.4918 7.62517 29.4918 7.61382 29.4918 7.62517C29.4918 7.61382 29.4918 7.61382 29.4918 7.62517ZM97.2419 7.20531C97.1943 7.20531 97.1943 7.20531 97.1466 7.20531C97.1943 7.20531 97.1943 7.20531 97.2419 7.20531ZM32.541 6.98971C32.541 6.98971 32.4934 6.98971 32.541 6.98971C32.4934 6.98971 32.541 6.97836 32.541 6.98971C32.541 6.97836 32.541 6.98971 32.541 6.98971ZM167.041 5.93439C167.136 5.94573 167.231 5.94573 167.327 5.95708C167.231 5.94573 167.184 5.93439 167.041 5.93439ZM28.1578 6.39964L28.253 6.38829C28.2054 6.38829 28.1578 6.38829 28.1578 6.39964ZM32.684 5.99113C32.8745 5.99113 33.0651 6.00247 33.2557 5.99113C33.1128 6.00247 32.9222 6.00247 32.684 5.99113ZM72.8481 1.62233C72.8004 1.62233 72.8004 1.62233 72.7528 1.62233C72.7528 1.62233 72.8004 1.62233 72.8481 1.62233C72.8004 1.61098 72.8004 1.62233 72.8481 1.62233ZM117.634 0.828005C117.634 0.828005 117.681 0.828005 117.634 0.828005V0.828005ZM138.359 1.9741H138.311C138.359 1.9741 138.359 1.9741 138.359 1.9741ZM161.085 2.56417C161.133 2.56417 161.181 2.56417 161.181 2.56417C161.181 2.56417 161.133 2.56417 161.085 2.56417ZM128.354 6.67198C128.401 6.67198 128.401 6.67198 128.449 6.67198C128.449 6.67198 128.401 6.67198 128.354 6.67198ZM45.5479 2.50744C45.3097 2.53013 44.8809 2.53013 44.3568 2.54148C44.8332 2.55283 45.2144 2.53013 45.5479 2.50744ZM119.492 1.36134H119.444C119.492 1.36134 119.539 1.36134 119.587 1.36134C119.539 1.36134 119.539 1.36134 119.492 1.36134ZM96.6226 1.39538C96.6702 1.39538 96.6702 1.39538 96.6226 1.39538V1.39538ZM52.361 6.04786C52.361 6.05921 52.4087 6.05921 52.361 6.04786C52.361 6.05921 52.361 6.05921 52.3134 6.05921C52.3134 6.05921 52.361 6.05921 52.361 6.04786ZM149.508 5.15141C149.508 5.15141 149.412 5.15141 149.412 5.14006C149.46 5.14006 149.46 5.14006 149.508 5.15141C149.508 5.14006 149.508 5.14006 149.508 5.15141ZM73.5627 3.39254C73.4198 3.39254 73.3245 3.40389 73.1816 3.40389C73.1816 3.40389 73.1816 3.40389 73.1816 3.39254C73.2769 3.39254 73.2769 3.3812 73.3722 3.3812C73.4198 3.39254 73.5151 3.39254 73.5627 3.39254ZM94.3833 1.9741H94.4309H94.3833ZM45.0238 3.77836C45.1191 3.77836 45.1668 3.78971 45.262 3.80105C45.1668 3.80105 45.1191 3.80105 45.0238 3.80105C45.0238 3.77836 45.0238 3.77836 45.0238 3.77836ZM89.8571 2.37127C89.8094 2.37127 89.8094 2.35992 89.7141 2.35992C89.8094 2.35992 89.7618 2.35992 89.8571 2.37127C89.8571 2.35992 89.8571 2.37127 89.8571 2.37127ZM72.5622 4.39112C72.5146 4.39112 72.5146 4.39112 72.4669 4.39112C72.4669 4.39112 72.5146 4.39112 72.5622 4.39112ZM110.868 3.5968C111.011 3.5968 111.154 3.60815 111.297 3.5968C111.154 3.5968 111.011 3.5968 110.868 3.5968ZM100.101 3.32446C100.053 3.32446 100.101 3.33581 100.053 3.33581C99.9576 3.31311 99.7671 3.33581 99.6241 3.32446C99.7671 3.32446 99.91 3.32446 100.101 3.32446ZM90.4288 3.16559C90.1906 3.16559 89.9047 3.16559 89.6665 3.16559C89.9047 3.16559 90.1429 3.16559 90.4288 3.16559C90.4288 3.15425 90.4288 3.16559 90.4288 3.16559ZM100.101 2.59822C100.101 2.59822 100.053 2.58687 100.101 2.58687C100.148 2.58687 100.196 2.59822 100.291 2.59822C100.196 2.59822 100.148 2.59822 100.101 2.59822ZM82.4722 4.43651C81.9958 4.43651 81.567 4.42517 81.2811 4.41382C81.6146 4.42517 81.9481 4.45921 82.4722 4.43651ZM109.248 4.37978C109.248 4.37978 109.201 4.39112 109.248 4.39112H109.201L109.248 4.37978ZM95.5267 2.71169C95.5744 2.74573 95.5267 2.76843 95.2409 2.77978C95.3838 2.75708 95.4314 2.73439 95.5267 2.71169ZM87.856 2.99538C87.7131 2.99538 87.6178 2.98403 87.4272 2.99538C87.4272 2.99538 87.4749 2.98403 87.5225 2.98403C87.7131 2.97269 87.856 2.98403 87.856 2.99538ZM78.6607 5.10602C78.6607 5.10602 78.7083 5.10602 78.6607 5.10602C78.6607 5.11737 78.6607 5.11737 78.5654 5.12871C78.6607 5.11737 78.613 5.11737 78.6607 5.10602ZM106.628 2.72304C106.485 2.72304 106.437 2.71169 106.294 2.71169C106.342 2.70035 106.437 2.71169 106.533 2.71169C106.58 2.72304 106.58 2.72304 106.628 2.72304ZM98.3377 2.32588C98.3854 2.32588 98.3377 2.32588 98.3377 2.32588V2.32588ZM88.1419 4.87907C88.1895 4.87907 88.1895 4.87907 88.1419 4.87907C88.1895 4.87907 88.1895 4.87907 88.1419 4.87907ZM90.3812 5.00389C90.3812 5.00389 90.3335 5.00389 90.3812 5.00389C90.3335 5.00389 90.3335 5.00389 90.3812 5.00389ZM110.154 1.95141C110.249 1.95141 110.296 1.94006 110.392 1.94006C110.296 1.95141 110.249 1.95141 110.154 1.95141ZM46.5008 4.76559C46.6437 4.76559 46.6914 4.78829 46.7867 4.78829C46.5961 4.78829 46.4532 4.79964 46.3102 4.79964C46.3579 4.78829 46.4532 4.77694 46.5008 4.76559ZM84.4733 5.1968C84.378 5.1968 84.2827 5.18545 84.1874 5.1968V5.18545C84.2827 5.18545 84.378 5.18545 84.4733 5.1968ZM84.8544 5.10602C84.8068 5.10602 84.7591 5.09467 84.7591 5.09467C84.5686 5.08332 84.4256 5.08332 84.235 5.09467C84.1874 5.09467 84.1874 5.09467 84.1398 5.09467C84.1874 5.09467 84.1874 5.08332 84.235 5.08332H84.5209H84.8068C84.7591 5.09467 84.8068 5.09467 84.8544 5.10602C84.8068 5.09467 84.8544 5.10602 84.8544 5.10602ZM107.485 5.35566C107.485 5.35566 107.533 5.35566 107.533 5.36701C107.438 5.37836 107.343 5.38971 107.438 5.40105C107.438 5.38971 107.438 5.36701 107.485 5.35566ZM94.4309 1.9741C94.5739 1.92871 94.1927 1.90602 93.8115 1.89467C94.0021 1.91737 94.2403 1.94006 94.4309 1.9741ZM77.8031 3.42659C77.7554 3.42659 77.7078 3.41524 77.6601 3.40389C77.8031 3.40389 77.8031 3.41524 77.8984 3.41524C77.8507 3.41524 77.8031 3.42659 77.8031 3.42659ZM66.6067 3.8124C66.559 3.8124 66.559 3.8124 66.6067 3.8124C66.4161 3.77836 66.0349 3.75566 65.6061 3.73297C65.7967 3.77836 66.0826 3.80105 66.6067 3.8124ZM50.8364 5.18545C51.027 5.1968 51.1699 5.18545 51.3605 5.1741C51.1223 5.18545 51.027 5.1968 50.8364 5.18545ZM78.6607 5.55992C78.3748 5.59396 77.4696 5.628 77.0408 5.57127C76.8502 5.54857 76.6596 5.55992 76.469 5.54857C77.2313 5.59396 77.9937 5.59396 78.6607 5.55992ZM101.387 5.31027C101.339 5.31027 101.339 5.31027 101.339 5.31027C101.339 5.31027 101.339 5.31027 101.387 5.31027ZM105.151 4.69751C105.199 4.69751 105.151 4.69751 105.151 4.69751V4.69751ZM122.35 3.02942C122.493 3.04077 122.684 3.05212 122.875 3.05212C122.636 3.05212 122.541 3.04077 122.35 3.02942ZM112.583 1.7585C112.583 1.7585 112.536 1.7585 112.583 1.7585C112.631 1.7585 112.679 1.7585 112.679 1.7585C112.631 1.7585 112.583 1.7585 112.583 1.7585ZM96.7178 1.48616C96.6702 1.48616 96.6702 1.48616 96.7178 1.48616C96.6702 1.48616 96.6702 1.48616 96.7178 1.48616C96.6702 1.48616 96.6702 1.48616 96.7178 1.48616ZM35.4473 4.83368C35.3997 4.83368 35.3997 4.83368 35.4473 4.83368C35.495 4.83368 35.5903 4.83368 35.6855 4.83368C35.5426 4.83368 35.495 4.83368 35.4473 4.83368ZM42.1652 5.1968C42.451 5.18545 42.6416 5.1741 42.6893 5.1741H42.7369C42.5463 5.1741 42.3557 5.18545 42.1652 5.1968ZM138.407 5.1968C138.883 5.1968 139.407 5.20815 139.788 5.18545C139.312 5.1741 138.883 5.1968 138.407 5.1968ZM96.6702 1.48616H96.6226H96.6702ZM86.4743 1.9741C86.379 1.9741 86.3314 1.9741 86.2361 1.9741C86.2838 1.9741 86.379 1.96276 86.4267 1.96276C86.4267 1.96276 86.4267 1.96276 86.4743 1.9741ZM84.7591 2.06488C84.7591 2.06488 84.7591 2.05354 84.7591 2.06488C84.7591 2.05354 84.7591 2.05354 84.7591 2.06488C84.7591 2.05354 84.7591 2.05354 84.7591 2.06488ZM83.6157 2.14432C83.568 2.14432 83.6157 2.14432 83.6157 2.14432C83.568 2.14432 83.5204 2.15566 83.5204 2.14432C83.5204 2.14432 83.568 2.14432 83.6157 2.14432ZM47.9301 3.10886C47.8825 3.09751 47.8825 3.10886 47.9301 3.10886V3.10886ZM47.9778 5.53722C48.8354 5.53722 49.693 5.53722 50.5506 5.53722C49.6453 5.52588 48.7401 5.49183 47.8825 5.54857C47.9301 5.53722 47.9301 5.53722 47.9778 5.53722ZM85.3309 6.19538C85.3785 6.19538 85.3309 6.19538 85.3309 6.19538V6.19538ZM108.105 6.28616C108.057 6.28616 108.057 6.27481 108.01 6.27481C108.105 6.27481 108.248 6.27481 108.295 6.28616C108.295 6.28616 108.2 6.27481 108.105 6.28616ZM138.692 3.07481C138.692 3.06347 138.645 3.06347 138.692 3.07481C138.692 3.06347 138.692 3.06347 138.692 3.07481C138.692 3.06347 138.692 3.07481 138.692 3.07481ZM116.585 1.79254C116.728 1.79254 116.824 1.79254 116.967 1.79254C116.824 1.79254 116.728 1.79254 116.585 1.79254ZM79.7565 2.40531H79.8041H79.7565ZM63.2239 2.83651C63.2716 2.83651 63.3192 2.83651 63.4145 2.84786C63.3192 2.85921 63.3192 2.87056 63.2716 2.88191C63.2716 2.85921 63.2239 2.84786 63.2239 2.83651ZM48.7401 6.16134C48.5971 6.18403 48.4066 6.17269 48.3113 6.19538C48.2636 6.17269 48.0731 6.17269 48.0254 6.14999C48.3113 6.16134 48.5971 6.17268 48.7401 6.16134ZM90.667 5.91169C90.6194 5.91169 90.6194 5.91169 90.5717 5.91169C90.5717 5.91169 90.6194 5.91169 90.667 5.91169C90.6194 5.91169 90.667 5.92304 90.667 5.91169ZM118.729 6.50176C118.777 6.50176 118.777 6.50176 118.825 6.50176C118.777 6.50176 118.729 6.50176 118.729 6.50176ZM132.165 5.50318C132.308 5.50318 132.213 5.49183 132.26 5.48049C132.356 5.49183 132.403 5.49183 132.499 5.50318C132.356 5.50318 132.26 5.50318 132.165 5.50318ZM103.483 1.21382C104.007 1.22517 104.389 1.20247 104.77 1.17978C104.77 1.17978 104.77 1.17978 104.722 1.17978C104.341 1.20247 103.912 1.21382 103.483 1.21382C103.483 1.22517 103.483 1.22517 103.483 1.21382ZM100.577 0.930132C100.577 0.930132 100.625 0.918785 100.577 0.930132C100.625 0.918785 100.672 0.918785 100.672 0.918785C100.625 0.918785 100.625 0.930132 100.577 0.930132ZM78.8989 1.69042C78.6607 1.65637 78.6607 1.65637 78.5177 1.64503C78.6607 1.64503 78.8036 1.66772 78.8989 1.64503C78.9465 1.66772 78.8512 1.66772 78.8989 1.69042ZM69.4177 2.4507C69.4177 2.4507 69.4653 2.4507 69.4177 2.4507C69.4653 2.4507 69.4653 2.4507 69.4177 2.4507ZM53.6474 1.9968C53.7427 1.98545 53.7427 1.9741 53.8857 1.96276C53.9333 1.9741 53.9809 1.96276 54.0286 1.9741C53.8857 1.9741 53.7904 1.9968 53.6474 1.9968ZM91.5723 6.1046C91.6199 6.1046 91.6199 6.1046 91.5723 6.1046C91.5246 6.11595 91.5246 6.12729 91.5723 6.13864C91.5723 6.12729 91.5723 6.11595 91.5723 6.1046ZM112.536 6.54715C112.583 6.54715 112.583 6.54715 112.583 6.54715C112.536 6.5585 112.536 6.56985 112.536 6.56985C112.536 6.56985 112.536 6.56985 112.488 6.56985C112.536 6.5585 112.536 6.54715 112.536 6.54715ZM139.884 5.84361C139.836 5.84361 139.836 5.84361 139.788 5.83226C139.836 5.84361 139.836 5.84361 139.884 5.84361ZM105.151 1.17978C105.199 1.17978 105.151 1.17978 105.151 1.17978C105.199 1.17978 105.199 1.17978 105.151 1.17978C105.199 1.17978 105.199 1.17978 105.151 1.17978ZM36.5431 3.24503C36.4955 3.24503 36.4955 3.24503 36.5431 3.24503V3.24503ZM80.757 6.70602C80.757 6.69467 80.757 6.68332 80.757 6.68332C81.4717 6.67198 81.7576 6.68332 81.9481 6.70602C81.6146 6.69467 81.2335 6.68332 80.757 6.70602ZM110.296 6.62659C110.535 6.64928 110.63 6.63793 110.821 6.63793C110.582 6.64928 110.439 6.64928 110.296 6.62659ZM160.561 6.81949C160.656 6.83084 160.847 6.83084 160.895 6.84219C160.847 6.83084 160.704 6.83084 160.561 6.81949ZM162.276 2.94999C162.372 2.96134 162.515 2.96134 162.705 2.97269C162.515 2.98403 162.276 2.98403 162.086 2.99538C162.181 2.97269 162.181 2.96134 162.276 2.94999ZM90.4764 0.839352H90.4288C90.4764 0.839352 90.5241 0.839352 90.6194 0.839352C90.5717 0.828005 90.5241 0.839352 90.4764 0.839352ZM73.4198 2.01949C73.3722 2.01949 73.3722 2.01949 73.4198 2.01949C73.3722 2.01949 73.4198 2.01949 73.4198 2.01949ZM68.7507 2.16701C68.6554 2.16701 68.5601 2.16701 68.4648 2.16701C68.5601 2.17836 68.6554 2.16701 68.7507 2.16701ZM52.8375 1.45212C52.6945 1.45212 52.5516 1.45212 52.4087 1.44077C52.5516 1.44077 52.6469 1.45212 52.8375 1.45212ZM33.7321 6.75141C33.8274 6.76276 33.8274 6.7741 33.7321 6.78545C33.7321 6.78545 33.7321 6.7741 33.6845 6.7741C33.7321 6.7741 33.7798 6.76276 33.7321 6.75141ZM154.844 6.96701C154.987 6.97836 155.082 6.97836 155.273 6.98971C154.987 6.98971 154.844 6.98971 154.558 6.98971C154.606 6.97836 154.844 6.97836 154.844 6.96701ZM161.562 6.93297C161.848 6.92162 162.181 6.91027 162.467 6.89893V6.91027C162.086 6.89893 161.8 6.91027 161.562 6.93297ZM159.275 2.37127C159.227 2.37127 159.132 2.37127 159.084 2.37127C159.227 2.37127 159.322 2.37127 159.465 2.37127C159.418 2.37127 159.322 2.37127 159.275 2.37127ZM144.6 2.43935C144.696 2.43935 144.743 2.43935 144.839 2.43935C144.791 2.4507 144.696 2.43935 144.6 2.43935ZM121.636 1.27056C121.683 1.27056 121.636 1.25921 121.683 1.25921C121.731 1.25921 121.683 1.27056 121.731 1.27056C121.683 1.27056 121.683 1.27056 121.636 1.27056ZM75.0873 1.25921C75.0397 1.25921 74.9444 1.27056 74.8968 1.27056C74.8968 1.27056 74.9444 1.27056 74.8968 1.25921C74.9921 1.25921 75.0397 1.25921 75.0873 1.25921ZM68.7983 1.17978C68.6077 1.16843 68.4648 1.19112 68.2266 1.19112C68.4648 1.19112 68.6554 1.19112 68.7983 1.17978ZM70.5611 1.39538C70.5135 1.39538 70.5135 1.40673 70.4659 1.40673V1.39538C70.5135 1.39538 70.5135 1.39538 70.5611 1.39538ZM42.9751 1.95141C42.9751 1.95141 42.9275 1.95141 42.9751 1.95141C42.9751 1.94006 43.0704 1.94006 43.0704 1.94006C43.0228 1.94006 43.0228 1.95141 42.9751 1.95141ZM36.4479 2.71169C36.4479 2.71169 36.4955 2.71169 36.4479 2.71169C36.4002 2.72304 36.3049 2.71169 36.2096 2.71169C36.3049 2.71169 36.3526 2.71169 36.4479 2.71169ZM45.1668 7.15992C45.1191 7.14857 45.2144 7.14857 45.1668 7.13722C45.3097 7.13722 45.3097 7.14857 45.405 7.14857C45.3573 7.15992 45.2144 7.15992 45.1668 7.15992ZM135.262 7.20531C135.548 7.20531 135.691 7.19396 135.929 7.18261C135.643 7.18261 135.453 7.19396 135.262 7.20531ZM136.93 7.13722C136.834 7.13722 136.739 7.13722 136.691 7.14857C136.787 7.14857 136.834 7.13722 136.93 7.13722ZM102.197 0.385451C102.149 0.385451 102.149 0.385451 102.102 0.385451C102.149 0.385451 102.245 0.385451 102.292 0.385451C102.245 0.374104 102.245 0.385451 102.197 0.385451ZM77.3743 1.00956C77.4219 0.998217 77.3743 0.998217 77.3743 1.00956V1.00956ZM26.8714 5.70744C26.8714 5.70744 26.8237 5.71878 26.8237 5.70744C26.8237 5.71878 26.8237 5.70744 26.8714 5.70744ZM31.874 6.71737C31.9217 6.71737 31.9693 6.71737 32.0169 6.71737C32.0169 6.71737 31.9693 6.71737 31.9217 6.71737C31.9217 6.72871 31.874 6.71737 31.874 6.71737ZM51.837 7.81807C51.9322 7.81807 52.0275 7.82942 52.1228 7.82942C52.0275 7.82942 51.9322 7.81807 51.837 7.81807C51.7893 7.81807 51.837 7.82942 51.837 7.81807ZM63.1763 7.62517C63.1286 7.62517 63.1286 7.62517 63.081 7.62517C63.1286 7.62517 63.1286 7.62517 63.1763 7.62517ZM165.23 5.45779C165.183 5.45779 165.183 5.45779 165.23 5.45779C165.278 5.45779 165.278 5.44644 165.326 5.44644C165.278 5.44644 165.278 5.44644 165.23 5.45779ZM150.651 1.80389C150.508 1.81524 150.365 1.81524 150.27 1.82659H150.222C150.318 1.81524 150.413 1.81524 150.508 1.80389C150.604 1.80389 150.604 1.80389 150.651 1.80389ZM133.166 0.430841C132.927 0.408146 132.689 0.374104 132.499 0.385451C132.451 0.374104 132.546 0.362756 132.403 0.351409C133.023 0.385451 133.166 0.408146 133.166 0.430841ZM111.964 0.271976C111.869 0.271976 111.821 0.271976 111.726 0.271976C111.773 0.271976 111.869 0.271976 111.964 0.271976C111.916 0.271976 111.964 0.271976 111.964 0.271976ZM13.2451 4.25495C13.2451 4.25495 13.2927 4.25495 13.3404 4.24361C13.3404 4.24361 13.2927 4.24361 13.2451 4.25495C13.2927 4.25495 13.2927 4.25495 13.2451 4.25495ZM12.1493 5.00389C12.1969 5.00389 12.1493 5.00389 12.1493 5.00389V5.00389ZM25.7755 5.67339C25.7755 5.69609 25.7755 5.71878 25.7755 5.73013C25.8232 5.70744 25.9185 5.68474 25.7755 5.67339ZM27.4431 7.4663C27.3478 7.47765 27.3478 7.47765 27.3002 7.47765C27.2525 7.47765 27.2525 7.4663 27.2049 7.4663C27.3002 7.4663 27.3478 7.4663 27.4431 7.4663ZM33.8274 7.26205C33.8274 7.26205 33.8274 7.2507 33.8751 7.23935C33.7798 7.23935 33.7321 7.228 33.6845 7.21666C33.6845 7.228 33.6845 7.23935 33.8751 7.23935C34.1133 7.23935 34.3039 7.2507 34.4944 7.26205C34.2562 7.26205 34.0656 7.2507 33.8274 7.26205ZM42.2128 7.81807C42.3081 7.81807 42.4034 7.81807 42.4987 7.81807C42.4034 7.81807 42.3081 7.81807 42.2128 7.81807ZM50.217 7.93155C50.217 7.93155 50.217 7.9429 50.1694 7.9429L50.217 7.93155ZM118.491 7.60247C118.539 7.59112 118.587 7.59112 118.587 7.57978C118.682 7.59112 118.682 7.59112 118.777 7.60247C118.682 7.60247 118.587 7.60247 118.491 7.60247ZM144.267 7.45495C144.314 7.45495 144.314 7.45495 144.267 7.45495L144.314 7.4663C144.314 7.45495 144.267 7.45495 144.267 7.45495ZM156.083 7.69325L156.13 7.6819C156.178 7.6819 156.226 7.69325 156.273 7.69325C156.178 7.6819 156.13 7.69325 156.083 7.69325ZM164.182 7.51169C164.182 7.51169 164.23 7.51169 164.182 7.51169C164.23 7.51169 164.182 7.51169 164.182 7.51169ZM172.186 5.66205C172.139 5.66205 172.139 5.66205 172.186 5.66205C172.186 5.66205 172.186 5.66205 172.234 5.66205C172.186 5.66205 172.186 5.66205 172.186 5.66205ZM166.803 4.44786C166.85 4.44786 166.945 4.44786 166.993 4.44786C166.993 4.44786 166.993 4.44786 166.993 4.45921C166.898 4.44786 166.85 4.44786 166.803 4.44786Z" fill="#0B69F5"/>
<path d="M44.4537 1.22509C45.7878 1.19104 47.1218 1.157 48.5035 1.13431C46.9312 1.10026 45.6448 1.11161 44.4537 1.19104C42.9768 1.16835 41.738 1.21374 40.4993 1.27048C38.26 1.30452 36.0683 1.34991 34.2579 1.48608C36.3542 1.42934 38.4029 1.3726 40.4993 1.31587C42.0239 1.32721 43.072 1.23643 44.4537 1.22509Z" fill="#FFA69E"/>
<path d="M81.9965 0.465029C81.9012 0.430986 81.4248 0.430986 81.0912 0.442334C80.853 0.442334 80.5195 0.465029 80.5195 0.476376C80.4719 0.521766 80.9007 0.521766 81.3295 0.521766C81.6153 0.510419 82.0918 0.499071 81.9965 0.465029Z" fill="#FFA69E"/>
<path d="M56.9807 0.941513C56.7902 0.930166 56.6472 0.918818 56.409 0.907471C56.0755 0.918818 55.742 0.930166 55.5514 0.941513C55.3608 0.964208 55.6467 0.986903 55.8849 0.975556C56.2661 0.975556 56.5996 0.964208 56.9807 0.941513Z" fill="#FFA69E"/>
<path d="M62.0815 0.918869C62.6532 0.907522 63.2249 0.884827 63.7967 0.873479C62.4626 0.725961 62.6056 0.884827 62.0815 0.918869Z" fill="#FFA69E"/>
</g>
<defs>
<clipPath id="clip0_0_248">
<rect width="180" height="8" fill="white" transform="translate(0 -0.000488281)"/>
</clipPath>
</defs>
</svg>
