<svg width="452" height="380" viewBox="0 0 452 380" fill="none" xmlns="http://www.w3.org/2000/svg">
<path d="M172.5 48.329C171.74 48.2024 170.727 48.139 169.46 48.139C168.193 48.0123 166.8 47.949 165.28 47.949C161.987 47.949 158.377 48.0757 154.45 48.329C150.65 48.4557 147.61 48.7724 145.33 49.279C144.19 51.8123 142.987 54.979 141.72 58.779C140.453 62.579 139.123 66.4424 137.73 70.369C136.463 74.2957 135.133 78.0957 133.74 81.769C132.473 85.3157 131.207 88.229 129.94 90.509C128.8 88.1024 127.47 85.1257 125.95 81.579C124.557 78.0324 123.163 74.2957 121.77 70.369C120.503 66.4424 119.237 62.579 117.97 58.779C116.83 54.979 115.943 51.6857 115.31 48.899C113.917 48.2657 112.46 47.8857 110.94 47.759C109.42 47.5057 107.9 47.379 106.38 47.379C103.593 47.379 100.807 47.569 98.02 47.949C95.2333 48.329 92.5733 48.519 90.04 48.519C91.3067 53.839 93.0167 59.2223 95.17 64.669C97.3233 70.1157 99.54 75.5624 101.82 81.009C104.227 86.4557 106.507 91.9657 108.66 97.539C110.813 102.986 112.587 108.496 113.98 114.069V114.449C109.547 125.596 105.113 136.806 100.68 148.079C96.2467 159.226 92.3833 169.929 89.09 180.189H89.47C90.23 180.316 90.99 180.379 91.75 180.379C92.51 180.379 93.27 180.379 94.03 180.379C96.9433 180.379 99.9833 180.252 103.15 179.999C106.317 179.872 109.23 179.809 111.89 179.809C112.777 179.809 113.6 179.809 114.36 179.809C115.12 179.809 115.88 179.872 116.64 179.999C120.44 168.852 124.81 157.896 129.75 147.129C134.69 136.236 139.757 125.406 144.95 114.639C150.143 103.746 155.147 92.8524 159.96 81.959C164.773 71.0657 168.953 59.919 172.5 48.519V48.329ZM248.516 67.519C246.996 63.0857 244.4 59.2223 240.726 55.929C237.053 53.1424 232.873 51.0524 228.186 49.659C223.626 48.139 218.876 47.2524 213.936 46.999C209.123 46.7457 204.246 47.1257 199.306 48.139C194.493 49.0257 189.996 50.4824 185.816 52.509C184.17 53.5224 182.713 54.6623 181.446 55.929C177.52 60.3623 174.86 65.4924 173.466 71.319C172.2 77.019 171.503 82.719 171.376 88.419C170.743 98.4257 170.616 108.432 170.996 118.439C171.503 128.319 171.946 138.199 172.326 148.079C172.453 151.752 172.77 155.426 173.276 159.099C173.91 162.646 175.113 166.002 176.886 169.169C178.026 171.702 179.483 173.792 181.256 175.439C183.03 176.959 184.993 178.226 187.146 179.239C189.426 180.252 191.77 180.949 194.176 181.329C196.71 181.836 199.306 182.216 201.966 182.469C205.64 182.722 209.25 182.722 212.796 182.469C216.47 182.216 220.08 181.582 223.626 180.569C227.553 179.556 231.226 178.162 234.646 176.389C238.193 174.489 241.043 172.019 243.196 168.979C245.476 165.306 247.186 161.252 248.326 156.819C249.466 152.259 250.163 147.762 250.416 143.329L250.986 137.059C251.493 130.472 251.683 124.012 251.556 117.679C251.43 111.346 251.556 104.822 251.936 98.109C252.063 94.9424 252.063 91.839 251.936 88.799C251.936 85.6324 251.81 82.4657 251.556 79.299C251.303 77.2724 250.923 75.309 250.416 73.409C250.036 71.3824 249.403 69.419 248.516 67.519ZM228.186 122.999C228.186 123.252 228.123 124.329 227.996 126.229C227.996 128.129 227.933 130.346 227.806 132.879C227.553 135.539 227.426 137.692 227.426 139.339C227.553 140.859 227.553 142.189 227.426 143.329C227.3 144.469 226.983 145.546 226.476 146.559C225.97 147.446 225.146 148.649 224.006 150.169C222.106 152.322 219.763 153.906 216.976 154.919C214.19 155.806 211.403 156.186 208.616 156.059C205.83 155.806 203.233 154.982 200.826 153.589C198.42 152.196 196.583 150.232 195.316 147.699C194.05 143.519 193.29 139.149 193.036 134.589C192.783 129.902 192.34 125.342 191.706 120.909C191.453 115.589 191.39 110.269 191.516 104.949C191.77 99.629 192.403 94.5624 193.416 89.749C194.936 84.429 197.913 80.059 202.346 76.639C204.373 75.119 206.716 74.0423 209.376 73.409C212.036 72.7757 214.633 72.9657 217.166 73.979C220.08 75.3723 222.36 77.5257 224.006 80.439C225.78 83.3523 226.793 86.5823 227.046 90.129C227.173 92.2824 227.3 94.6257 227.426 97.159C227.68 99.5657 227.806 100.832 227.806 100.959L228.186 113.879V122.999ZM346.442 52.889C344.922 52.0023 342.959 51.4323 340.552 51.179C338.145 50.9257 335.612 50.8624 332.952 50.989C330.292 51.1157 327.632 51.369 324.972 51.749C322.439 52.0024 320.349 52.1923 318.702 52.319C318.322 67.0123 318.069 82.2123 317.942 97.919C317.942 113.626 317.625 129.079 316.992 144.279C316.359 147.192 314.965 149.472 312.812 151.119C310.659 152.766 308.315 153.652 305.782 153.779C303.249 153.906 300.779 153.272 298.372 151.879C296.092 150.486 294.509 148.269 293.622 145.229C291.089 113.689 290.519 82.5924 291.912 51.939V51.749C290.012 51.2424 287.922 50.9257 285.642 50.799C283.362 50.5457 281.019 50.419 278.612 50.419C276.205 50.419 273.799 50.4823 271.392 50.609C269.112 50.7357 267.022 50.799 265.122 50.799H264.932L265.122 50.989C265.375 67.709 265.312 84.5557 264.932 101.529C264.552 118.502 264.362 135.349 264.362 152.069C264.615 157.896 266.262 162.899 269.302 167.079C272.469 171.132 276.332 174.426 280.892 176.959C285.579 179.366 290.772 181.012 296.472 181.899C302.172 182.912 307.682 183.166 313.002 182.659C322.122 181.772 329.342 178.416 334.662 172.589C339.982 166.762 343.149 159.669 344.162 151.309C345.935 134.969 346.949 118.566 347.202 102.099C347.455 85.5057 347.202 69.1024 346.442 52.889ZM451.3 179.429C449.4 174.236 447.056 169.232 444.27 164.419C441.483 159.479 438.57 154.666 435.53 149.979C432.49 145.292 429.386 140.669 426.22 136.109C423.053 131.422 420.14 126.736 417.48 122.049V121.859H417.67H418.43C424.51 121.479 429.513 119.769 433.44 116.729C437.493 113.689 440.723 109.889 443.13 105.329C447.056 98.7424 448.893 91.9657 448.64 84.999C448.513 77.9057 446.803 71.4457 443.51 65.619C440.216 59.7924 435.593 54.9157 429.64 50.989C423.686 47.0624 416.973 44.909 409.5 44.529C400.253 43.5157 391.386 43.4524 382.9 44.339C374.413 45.2257 366.623 46.1757 359.53 47.189C359.783 48.8357 359.973 52.0023 360.1 56.689C360.353 61.249 360.543 66.8223 360.67 73.409C360.796 79.869 360.923 87.0257 361.05 94.879C361.303 102.606 361.43 110.459 361.43 118.439C361.556 126.292 361.62 133.956 361.62 141.429C361.62 148.776 361.62 155.299 361.62 160.999C361.62 166.699 361.556 171.322 361.43 174.869C361.303 178.289 361.113 179.999 360.86 179.999C361.493 179.872 363.14 179.872 365.8 179.999C368.586 180.126 371.69 180.126 375.11 179.999C378.53 179.999 381.95 179.872 385.37 179.619C388.916 179.366 391.766 178.796 393.92 177.909C393.793 175.502 393.603 172.272 393.35 168.219C393.096 164.166 392.843 159.922 392.59 155.489C392.463 150.929 392.4 146.559 392.4 142.379C392.4 138.072 392.59 134.462 392.97 131.549L393.35 132.119C396.01 135.412 398.67 139.212 401.33 143.519C403.99 147.826 406.46 152.196 408.74 156.629C411.02 161.062 413.11 165.306 415.01 169.359C416.91 173.412 418.493 176.896 419.76 179.809H419.95C425.65 180.189 431.223 180.252 436.67 179.999C442.116 179.619 447.056 179.429 451.49 179.429H451.3ZM387.27 73.789C391.703 72.0157 396.073 71.0657 400.38 70.939C404.686 70.6857 408.233 71.8257 411.02 74.359C412.793 75.7524 414.06 77.6524 414.82 80.059C415.58 82.339 415.833 84.6824 415.58 87.089C415.326 89.369 414.503 91.5224 413.11 93.549C411.843 95.449 410.006 96.6524 407.6 97.159C404.56 97.6657 401.33 97.8557 397.91 97.729C394.49 97.6024 391.323 97.4124 388.41 97.159H388.22C387.966 95.7657 387.776 94.0557 387.65 92.029C387.65 90.0024 387.65 87.9124 387.65 85.759C387.65 83.6057 387.586 81.5157 387.46 79.489C387.46 77.3357 387.396 75.4357 387.27 73.789Z" fill="white"/>
<path d="M28.56 156.219C25.56 155.659 23.08 155.899 21.12 156.939C19.16 157.979 17.68 159.459 16.68 161.379C16.24 162.339 15.88 163.399 15.6 164.559C15.32 165.679 15.16 166.839 15.12 168.039C15.04 169.199 15.08 170.359 15.24 171.519C15.36 172.679 15.62 173.739 16.02 174.699C16.82 176.619 18.04 178.259 19.68 179.619C21.32 180.939 23.14 181.839 25.14 182.319C27.14 182.799 29.2 182.779 31.32 182.259C33.44 181.699 35.38 180.499 37.14 178.659C37.62 178.099 38.04 177.479 38.4 176.799C38.76 176.119 39.02 175.379 39.18 174.579C39.34 173.739 39.52 172.839 39.72 171.879C39.88 170.919 40.14 170.039 40.5 169.239C40.86 168.399 41.34 167.679 41.94 167.079C42.5 166.479 43.26 166.119 44.22 165.999C45.62 165.759 46.66 166.039 47.34 166.839C48.02 167.599 48.38 168.519 48.42 169.599C48.42 170.639 48.1 171.639 47.46 172.599C46.82 173.519 45.86 174.019 44.58 174.099C44.62 175.459 44.6 176.979 44.52 178.659C44.4 180.339 44.44 181.879 44.64 183.279H44.82H45C46.92 183.399 48.64 183.059 50.16 182.259C51.64 181.459 52.9 180.379 53.94 179.019C54.98 177.659 55.8 176.119 56.4 174.399C56.96 172.639 57.26 170.879 57.3 169.119C57.34 167.879 57.24 166.679 57 165.519C56.72 164.319 56.3 163.219 55.74 162.219C55.18 161.179 54.46 160.259 53.58 159.459C52.7 158.659 51.64 158.019 50.4 157.539C49.36 157.059 48.28 156.719 47.16 156.519C46 156.279 44.86 156.199 43.74 156.279C42.62 156.319 41.54 156.519 40.5 156.879C39.42 157.239 38.42 157.779 37.5 158.499C35.78 159.659 34.36 161.159 33.24 162.999C32.12 164.799 31.44 166.759 31.2 168.879C31.08 169.719 30.86 170.499 30.54 171.219C30.22 171.939 29.58 172.459 28.62 172.779C28.34 172.819 28.08 172.859 27.84 172.899C27.56 172.899 27.28 172.859 27 172.779C25.88 172.619 25.12 172.099 24.72 171.219C24.32 170.299 24.22 169.359 24.42 168.399C24.62 167.439 25.08 166.619 25.8 165.939C26.52 165.259 27.42 165.039 28.5 165.279C28.9 163.879 29.08 162.379 29.04 160.779C28.96 159.179 28.8 157.679 28.56 156.279V156.219ZM15.3 128.958C14.86 133.078 14.66 137.318 14.7 141.678C14.7 145.998 14.72 150.198 14.76 154.278C14.8 154.278 14.82 154.278 14.82 154.278C14.82 154.238 14.84 154.218 14.88 154.218C15.84 154.298 16.84 154.338 17.88 154.338C18.92 154.338 19.9 154.338 20.82 154.338C21.7 154.298 22.46 154.258 23.1 154.218C23.74 154.138 24.14 154.058 24.3 153.978C24.38 153.738 24.42 153.318 24.42 152.718C24.42 152.118 24.44 151.458 24.48 150.738C24.48 150.018 24.52 149.298 24.6 148.578C24.64 147.858 24.78 147.258 25.02 146.778L25.08 146.718C30.68 146.478 35.46 146.338 39.42 146.298C43.38 146.218 46.64 146.198 49.2 146.238C51.72 146.238 53.62 146.258 54.9 146.298C56.18 146.338 56.9 146.338 57.06 146.298C56.94 145.578 56.88 144.798 56.88 143.958C56.88 143.118 56.88 142.278 56.88 141.438C56.88 140.558 56.88 139.698 56.88 138.858C56.84 137.978 56.76 137.178 56.64 136.458H56.58H56.52C52.16 136.538 48.38 136.598 45.18 136.638C41.94 136.678 39.18 136.718 36.9 136.758C34.58 136.798 32.7 136.838 31.26 136.878C29.78 136.878 28.6 136.878 27.72 136.878C26.8 136.878 26.14 136.878 25.74 136.878C25.3 136.838 24.98 136.798 24.78 136.758C24.74 136.758 24.72 136.758 24.72 136.758C24.68 136.718 24.64 136.698 24.6 136.698V136.638V136.518C24.52 134.638 24.46 133.138 24.42 132.018C24.38 130.898 24.44 129.958 24.6 129.198C23.16 128.998 21.58 128.898 19.86 128.898C18.14 128.858 16.62 128.878 15.3 128.958ZM35.94 109.252C35.26 109.412 34.34 109.632 33.18 109.912C32.02 110.192 30.74 110.492 29.34 110.812C27.94 111.132 26.48 111.472 24.96 111.832C23.44 112.152 22.02 112.472 20.7 112.792C19.34 113.072 18.14 113.352 17.1 113.632C16.02 113.872 15.22 114.052 14.7 114.172C14.82 115.492 14.9 116.572 14.94 117.412C14.94 118.212 14.94 118.872 14.94 119.392C14.94 119.912 14.94 120.332 14.94 120.652C14.94 120.972 14.96 121.272 15 121.552C18.2 122.512 21.42 123.392 24.66 124.192C27.9 124.992 31.02 125.732 34.02 126.412C37.02 127.092 39.86 127.692 42.54 128.212C45.18 128.692 47.52 129.112 49.56 129.472C51.6 129.832 53.26 130.112 54.54 130.312C55.82 130.512 56.6 130.652 56.88 130.732C56.92 130.692 56.94 130.652 56.94 130.612C56.9 127.892 56.92 125.892 57 124.612C57.08 123.332 57.08 122.532 57 122.212C57 122.172 57 122.152 57 122.152C56.96 122.112 56.94 122.072 56.94 122.032C56.26 121.672 55.48 121.392 54.6 121.192C53.72 120.992 52.82 120.812 51.9 120.652C50.94 120.452 50.04 120.272 49.2 120.112C48.32 119.912 47.56 119.672 46.92 119.392C46.92 118.952 46.92 118.612 46.92 118.372C46.88 118.092 46.86 117.852 46.86 117.652C46.86 117.412 46.86 117.152 46.86 116.872C46.86 116.592 46.9 116.192 46.98 115.672C47.58 115.392 48.3 115.132 49.14 114.892C49.98 114.652 50.86 114.432 51.78 114.232C52.7 113.992 53.6 113.772 54.48 113.572C55.36 113.332 56.12 113.092 56.76 112.852V112.792C57.04 111.512 57.2 110.152 57.24 108.712C57.32 107.272 57.24 105.952 57 104.752H56.94L35.94 109.252ZM39.84 115.372C39.84 116.132 39.86 116.892 39.9 117.652C39.9 118.412 39.88 119.132 39.84 119.812C37.8 119.532 35.9 119.292 34.14 119.092C32.38 118.852 30.92 118.652 29.76 118.492C28.6 118.292 27.84 118.092 27.48 117.892C27.08 117.652 27.22 117.432 27.9 117.232C28.58 116.992 29.88 116.732 31.8 116.452C33.72 116.132 36.4 115.772 39.84 115.372ZM56.82 73.9961C55.18 74.5961 53.6 75.3361 52.08 76.2161C50.52 77.0961 49 78.0161 47.52 78.9761C46.04 79.9361 44.58 80.9161 43.14 81.9161C41.66 82.9161 40.18 83.8361 38.7 84.6761H38.64V84.6161V84.3761C38.52 82.4561 37.98 80.8761 37.02 79.6361C36.06 78.3561 34.86 77.3361 33.42 76.5761C31.34 75.3361 29.2 74.7561 27 74.8361C24.76 74.8761 22.72 75.4161 20.88 76.4561C19.04 77.4961 17.5 78.9561 16.26 80.8361C15.02 82.7161 14.34 84.8361 14.22 87.1961C13.9 90.1161 13.88 92.9161 14.16 95.5961C14.44 98.2761 14.74 100.736 15.06 102.976C15.58 102.896 16.58 102.836 18.06 102.796C19.5 102.716 21.26 102.656 23.34 102.616C25.38 102.576 27.64 102.536 30.12 102.496C32.56 102.416 35.04 102.376 37.56 102.376C40.04 102.336 42.46 102.316 44.82 102.316C47.14 102.316 49.2 102.316 51 102.316C52.8 102.316 54.26 102.336 55.38 102.376C56.46 102.416 57 102.476 57 102.556C56.96 102.356 56.96 101.836 57 100.996C57.04 100.116 57.04 99.1361 57 98.0561C57 96.9761 56.96 95.8961 56.88 94.8161C56.8 93.6961 56.62 92.7961 56.34 92.1161C55.58 92.1561 54.56 92.2161 53.28 92.2961C52 92.3761 50.66 92.4561 49.26 92.5361C47.82 92.5761 46.44 92.5961 45.12 92.5961C43.76 92.5961 42.62 92.5361 41.7 92.4161L41.88 92.2961C42.92 91.4561 44.12 90.6161 45.48 89.7761C46.84 88.9361 48.22 88.1561 49.62 87.4361C51.02 86.7161 52.36 86.0561 53.64 85.4561C54.92 84.8561 56.02 84.3561 56.94 83.9561V83.8961C57.06 82.0961 57.08 80.3361 57 78.6161C56.88 76.8961 56.82 75.3361 56.82 73.9361V73.9961ZM23.46 94.2161C22.9 92.8161 22.6 91.4361 22.56 90.0761C22.48 88.7161 22.84 87.5961 23.64 86.7161C24.08 86.1561 24.68 85.7561 25.44 85.5161C26.16 85.2761 26.9 85.1961 27.66 85.2761C28.38 85.3561 29.06 85.6161 29.7 86.0561C30.3 86.4561 30.68 87.0361 30.84 87.7961C31 88.7561 31.06 89.7761 31.02 90.8561C30.98 91.9361 30.92 92.9361 30.84 93.8561V93.9161C30.4 93.9961 29.86 94.0561 29.22 94.0961C28.58 94.0961 27.92 94.0961 27.24 94.0961C26.56 94.0961 25.9 94.1161 25.26 94.1561C24.58 94.1561 23.98 94.1761 23.46 94.2161ZM15.3 47.9814C14.86 52.1014 14.66 56.3414 14.7 60.7014C14.7 65.0214 14.72 69.2214 14.76 73.3014C14.8 73.3014 14.82 73.3014 14.82 73.3014C14.82 73.2614 14.84 73.2414 14.88 73.2414C15.84 73.3214 16.84 73.3614 17.88 73.3614C18.92 73.3614 19.9 73.3614 20.82 73.3614C21.7 73.3214 22.46 73.2814 23.1 73.2414C23.74 73.1614 24.14 73.0814 24.3 73.0014C24.38 72.7614 24.42 72.3414 24.42 71.7414C24.42 71.1414 24.44 70.4814 24.48 69.7614C24.48 69.0414 24.52 68.3214 24.6 67.6014C24.64 66.8814 24.78 66.2814 25.02 65.8014L25.08 65.7414C30.68 65.5014 35.46 65.3614 39.42 65.3214C43.38 65.2414 46.64 65.2214 49.2 65.2614C51.72 65.2614 53.62 65.2814 54.9 65.3214C56.18 65.3614 56.9 65.3614 57.06 65.3214C56.94 64.6014 56.88 63.8214 56.88 62.9814C56.88 62.1414 56.88 61.3014 56.88 60.4614C56.88 59.5814 56.88 58.7214 56.88 57.8814C56.84 57.0014 56.76 56.2014 56.64 55.4814H56.58H56.52C52.16 55.5614 48.38 55.6214 45.18 55.6614C41.94 55.7014 39.18 55.7414 36.9 55.7814C34.58 55.8214 32.7 55.8614 31.26 55.9014C29.78 55.9014 28.6 55.9014 27.72 55.9014C26.8 55.9014 26.14 55.9014 25.74 55.9014C25.3 55.8614 24.98 55.8214 24.78 55.7814C24.74 55.7814 24.72 55.7814 24.72 55.7814C24.68 55.7414 24.64 55.7214 24.6 55.7214V55.6614V55.5414C24.52 53.6614 24.46 52.1614 24.42 51.0414C24.38 49.9214 24.44 48.9814 24.6 48.2214C23.16 48.0214 21.58 47.9214 19.86 47.9214C18.14 47.8814 16.62 47.9014 15.3 47.9814Z" fill="white"/>
<path d="M77.67 217.769C75.39 214.096 72.35 210.802 68.55 207.889C64.8767 204.849 61.0133 202.822 56.96 201.809C53.2867 201.936 49.4867 201.936 45.56 201.809C41.76 201.682 37.8967 201.619 33.97 201.619C30.0433 201.492 26.1167 201.619 22.19 201.999C18.39 202.252 14.7167 202.822 11.17 203.709C11.0433 203.836 10.9167 203.962 10.79 204.089C10.79 204.216 10.7267 204.342 10.6 204.469C10.8533 215.489 10.8533 226.636 10.6 237.909C10.4733 249.056 10.41 260.139 10.41 271.159C10.41 282.179 10.6 293.072 10.98 303.839C11.36 314.479 12.2467 324.802 13.64 334.809C13.7667 334.682 13.83 334.619 13.83 334.619C21.81 334.619 30.0433 334.619 38.53 334.619C47.0167 334.492 55.44 334.302 63.8 334.049C68.6133 328.096 73.1733 321.762 77.48 315.049C81.9133 308.336 85.3967 301.242 87.93 293.769C87.93 293.642 87.93 293.579 87.93 293.579C88.0567 293.579 88.12 293.516 88.12 293.389C89.26 287.562 89.8933 281.672 90.02 275.719C90.2733 269.639 90.5267 263.622 90.78 257.669C90.6533 255.642 90.4633 253.679 90.21 251.779C90.0833 249.752 89.7033 247.726 89.07 245.699C87.93 240.632 86.41 235.819 84.51 231.259C82.7367 226.572 80.4567 222.076 77.67 217.769ZM60.19 286.739C59.43 287.879 58.5433 289.019 57.53 290.159C56.6433 291.172 55.5667 292.059 54.3 292.819C53.6667 293.072 53.0967 293.389 52.59 293.769C52.0833 294.022 51.5133 294.086 50.88 293.959C48.6 294.212 46.1933 294.402 43.66 294.529C41.2533 294.656 39.3533 294.086 37.96 292.819C37.7067 288.512 37.58 284.206 37.58 279.899C37.58 275.466 37.6433 271.159 37.77 266.979C37.8967 262.672 37.96 258.556 37.96 254.629C37.96 250.702 37.8333 247.029 37.58 243.609V242.849H37.77H38.15C40.43 242.342 42.8367 242.152 45.37 242.279C47.9033 242.279 50.2467 242.406 52.4 242.659C54.5533 243.419 56.3267 244.559 57.72 246.079C59.1133 247.472 60.2533 249.119 61.14 251.019C62.1533 252.919 62.9133 254.946 63.42 257.099C63.9267 259.126 64.37 261.089 64.75 262.989C65.7633 267.676 65.7633 271.982 64.75 275.909C63.8633 279.836 62.3433 283.446 60.19 286.739ZM182.63 309.159C174.017 309.412 165.657 309.349 157.55 308.969C149.443 308.462 141.21 308.209 132.85 308.209L132.66 308.019C132.407 304.979 132.153 301.179 131.9 296.619C131.773 292.059 132.027 287.942 132.66 284.269C133.293 283.762 134.497 283.446 136.27 283.319C138.043 283.192 140.007 283.129 142.16 283.129C144.44 283.129 146.783 283.129 149.19 283.129C151.597 283.002 153.75 282.686 155.65 282.179C155.523 277.492 155.587 272.996 155.84 268.689C156.093 264.382 155.903 260.076 155.27 255.769V255.579C151.343 255.452 147.417 255.389 143.49 255.389C139.563 255.389 135.7 255.262 131.9 255.009L131.71 254.819C130.823 251.399 130.57 247.789 130.95 243.989C131.457 240.062 131.647 236.262 131.52 232.589L131.71 232.399H132.28C136.46 232.019 140.64 231.829 144.82 231.829C149 231.829 153.18 231.892 157.36 232.019C161.54 232.019 165.657 231.956 169.71 231.829C173.89 231.576 178.007 231.006 182.06 230.119V229.929C182.06 225.496 182.187 220.999 182.44 216.439C182.82 211.879 182.693 207.382 182.06 202.949C182.06 202.822 180.793 202.696 178.26 202.569C175.727 202.442 172.37 202.379 168.19 202.379C164.01 202.379 159.197 202.442 153.75 202.569C148.303 202.696 142.667 202.822 136.84 202.949C131.013 203.076 125.187 203.266 119.36 203.519C113.66 203.646 108.34 203.836 103.4 204.089C102.767 214.982 102.387 225.812 102.26 236.579C102.133 247.346 102.133 258.112 102.26 268.879C102.387 279.646 102.577 290.476 102.83 301.369C103.083 312.136 103.21 323.029 103.21 334.049C115.497 335.062 128.29 335.379 141.59 334.999C155.017 334.492 168.19 334.302 181.11 334.429C182.123 330.629 182.693 326.576 182.82 322.269C182.947 317.836 182.883 313.592 182.63 309.539V309.159ZM273.345 274.579C273.978 262.419 274.041 250.449 273.535 238.669C273.028 226.762 273.028 214.729 273.535 202.569C271.508 202.569 269.038 202.632 266.125 202.759C263.338 202.759 260.551 202.822 257.765 202.949C255.105 203.076 252.571 203.202 250.165 203.329C247.885 203.456 246.301 203.456 245.415 203.329C244.275 204.849 243.071 207.256 241.805 210.549C240.665 213.842 239.588 217.199 238.575 220.619C237.688 223.912 236.801 226.826 235.915 229.359C235.155 231.892 234.585 233.096 234.205 232.969C233.825 232.969 233.445 232.779 233.065 232.399C232.051 230.879 231.038 228.789 230.025 226.129C229.138 223.469 228.188 220.682 227.175 217.769C226.161 214.856 225.085 212.132 223.945 209.599C222.805 206.939 221.665 204.976 220.525 203.709H220.335C218.181 203.836 215.965 203.899 213.685 203.899C211.405 203.772 209.125 203.709 206.845 203.709C204.565 203.582 202.348 203.582 200.195 203.709C198.041 203.836 196.141 204.152 194.495 204.659C194.368 221.886 194.241 236.959 194.115 249.879C194.115 262.799 194.051 273.946 193.925 283.319C193.925 292.692 193.925 300.546 193.925 306.879C193.925 313.212 193.925 318.342 193.925 322.269C194.051 326.069 194.178 328.919 194.305 330.819C194.431 332.719 194.558 333.922 194.685 334.429C194.811 334.809 195.001 334.999 195.255 334.999C199.308 334.999 203.741 335.062 208.555 335.189C213.368 335.316 217.801 335.062 221.855 334.429C221.095 322.649 220.525 310.679 220.145 298.519C219.891 286.359 220.271 274.326 221.285 262.419C221.285 262.419 221.475 263.052 221.855 264.319C222.361 265.586 222.931 267.169 223.565 269.069C224.198 270.969 224.958 273.059 225.845 275.339C226.731 277.619 227.555 279.772 228.315 281.799C229.201 283.826 230.025 285.536 230.785 286.929C231.671 288.196 232.431 288.829 233.065 288.829C233.571 288.829 234.331 287.626 235.345 285.219C236.358 282.812 237.435 280.026 238.575 276.859C239.715 273.692 240.855 270.652 241.995 267.739C243.135 264.699 244.148 262.482 245.035 261.089C245.668 266.409 246.111 272.236 246.365 278.569C246.745 284.902 246.935 291.362 246.935 297.949C247.061 304.536 247.125 310.996 247.125 317.329C247.251 323.662 247.441 329.552 247.695 334.999C249.215 334.999 250.988 334.999 253.015 334.999C255.168 334.872 257.385 334.809 259.665 334.809C261.945 334.809 264.225 334.809 266.505 334.809C268.785 334.809 270.875 334.936 272.775 335.189L273.345 274.579ZM364.35 222.519C362.83 218.086 360.234 214.222 356.56 210.929C352.887 208.142 348.707 206.052 344.02 204.659C339.46 203.139 334.71 202.252 329.77 201.999C324.957 201.746 320.08 202.126 315.14 203.139C310.327 204.026 305.83 205.482 301.65 207.509C300.004 208.522 298.547 209.662 297.28 210.929C293.354 215.362 290.694 220.492 289.3 226.319C288.034 232.019 287.337 237.719 287.21 243.419C286.577 253.426 286.45 263.432 286.83 273.439C287.337 283.319 287.78 293.199 288.16 303.079C288.287 306.752 288.604 310.426 289.11 314.099C289.744 317.646 290.947 321.002 292.72 324.169C293.86 326.702 295.317 328.792 297.09 330.439C298.864 331.959 300.827 333.226 302.98 334.239C305.26 335.252 307.604 335.949 310.01 336.329C312.544 336.836 315.14 337.216 317.8 337.469C321.474 337.722 325.084 337.722 328.63 337.469C332.304 337.216 335.914 336.582 339.46 335.569C343.387 334.556 347.06 333.162 350.48 331.389C354.027 329.489 356.877 327.019 359.03 323.979C361.31 320.306 363.02 316.252 364.16 311.819C365.3 307.259 365.997 302.762 366.25 298.329L366.82 292.059C367.327 285.472 367.517 279.012 367.39 272.679C367.264 266.346 367.39 259.822 367.77 253.109C367.897 249.942 367.897 246.839 367.77 243.799C367.77 240.632 367.644 237.466 367.39 234.299C367.137 232.272 366.757 230.309 366.25 228.409C365.87 226.382 365.237 224.419 364.35 222.519ZM344.02 277.999C344.02 278.252 343.957 279.329 343.83 281.229C343.83 283.129 343.767 285.346 343.64 287.879C343.387 290.539 343.26 292.692 343.26 294.339C343.387 295.859 343.387 297.189 343.26 298.329C343.134 299.469 342.817 300.546 342.31 301.559C341.804 302.446 340.98 303.649 339.84 305.169C337.94 307.322 335.597 308.906 332.81 309.919C330.024 310.806 327.237 311.186 324.45 311.059C321.664 310.806 319.067 309.982 316.66 308.589C314.254 307.196 312.417 305.232 311.15 302.699C309.884 298.519 309.124 294.149 308.87 289.589C308.617 284.902 308.174 280.342 307.54 275.909C307.287 270.589 307.224 265.269 307.35 259.949C307.604 254.629 308.237 249.562 309.25 244.749C310.77 239.429 313.747 235.059 318.18 231.639C320.207 230.119 322.55 229.042 325.21 228.409C327.87 227.776 330.467 227.966 333 228.979C335.914 230.372 338.194 232.526 339.84 235.439C341.614 238.352 342.627 241.582 342.88 245.129C343.007 247.282 343.134 249.626 343.26 252.159C343.514 254.566 343.64 255.832 343.64 255.959L344.02 268.879V277.999Z" fill="white"/>
</svg>
