<svg width="120" height="120" viewBox="0 0 120 120" fill="none" xmlns="http://www.w3.org/2000/svg">
<path d="M106.66 22.8984H84.418V103.64H106.66C108.605 103.64 110.176 102.07 110.176 100.125V26.414C110.176 24.4687 108.605 22.8984 106.66 22.8984Z" fill="white"/>
<path d="M101.293 76.406H84.418V103.64H101.293C101.691 103.64 101.996 103.336 101.996 102.937V77.1091C101.996 76.7341 101.691 76.406 101.293 76.406Z" fill="#2681FF"/>
<path d="M101.293 43.0312H84.418V70.2654H101.293C101.691 70.2654 101.996 69.9608 101.996 69.5623V43.7344C101.996 43.3359 101.691 43.0312 101.293 43.0312Z" fill="#2681FF"/>
<path d="M106.66 22.8984H84.418V34.1952H110.176V26.414C110.176 24.4687 108.605 22.8984 106.66 22.8984Z" fill="#F0F4F5"/>
<path d="M34.9217 22.8984H13.3828C11.4375 22.8984 9.86719 24.4687 9.86719 26.414V100.125C9.86719 102.07 11.4375 103.64 13.3828 103.64H34.9217V22.8984Z" fill="white"/>
<path d="M34.9218 93.7027V62.7419H16.875C16.4766 62.7419 16.1719 63.0466 16.1719 63.4451V92.9995C16.1719 93.398 16.4766 93.7027 16.875 93.7027H34.9218Z" fill="#2681FF"/>
<path d="M34.9218 56.6718V46.8281H16.875C16.4766 46.8281 16.1719 47.1328 16.1719 47.5312V55.9687C16.1719 56.3671 16.4766 56.6718 16.875 56.6718H34.9218Z" fill="#2681FF"/>
<path d="M34.9217 22.8984H13.3828C11.4375 22.8984 9.86719 24.4687 9.86719 26.414V34.1952H34.9217V22.8984Z" fill="#F0F4F5"/>
<path d="M92.859 19.383V107.156C92.859 109.101 91.2887 110.672 89.3434 110.672H30.7031C28.7578 110.672 27.1875 109.101 27.1875 107.156V19.383C27.1875 17.4377 28.7578 15.8674 30.7031 15.8674H89.3434C91.2887 15.8674 92.859 17.4377 92.859 19.383Z" fill="white"/>
<path d="M92.859 65.8826H27.1875" stroke="#4C5259" stroke-miterlimit="10"/>
<path d="M27.1875 34.2188H92.859" stroke="#4C5259" stroke-miterlimit="10"/>
<path d="M92.859 27.1642V19.383C92.859 17.4377 91.2887 15.8674 89.3434 15.8674H30.7031C28.7578 15.8674 27.1875 17.4377 27.1875 19.383V27.1642H92.859Z" fill="#F0F4F5"/>
<path d="M46.7577 84.1637H32.0625C31.6641 84.1637 31.3594 83.8591 31.3594 83.4606V72.9841C31.3594 72.5857 31.6641 72.281 32.0625 72.281H46.7577C47.1561 72.281 47.4608 72.5857 47.4608 72.9841V83.4606C47.4608 83.8591 47.1561 84.1637 46.7577 84.1637Z" fill="#2681FF"/>
<path d="M44.3203 84.1638H38.6953V77.2732C38.6953 76.8748 39 76.5701 39.3984 76.5701H43.6172C44.0156 76.5701 44.3203 76.8748 44.3203 77.2732V84.1638Z" fill="#2681FF"/>
<path d="M67.078 84.1637H52.3828C51.9844 84.1637 51.6797 83.8591 51.6797 83.4606V72.9841C51.6797 72.5857 51.9844 72.281 52.3828 72.281H67.078C67.4765 72.281 67.7811 72.5857 67.7811 72.9841V83.4606C67.7811 83.8591 67.4765 84.1637 67.078 84.1637Z" fill="#2681FF"/>
<path d="M64.6406 84.1638H59.0156V77.2732C59.0156 76.8748 59.3203 76.5701 59.7187 76.5701H63.9375C64.3359 76.5701 64.6406 76.8748 64.6406 77.2732V84.1638Z" fill="#2681FF"/>
<path d="M87.3944 84.1637H72.6992C72.3008 84.1637 71.9961 83.8591 71.9961 83.4606V72.9841C71.9961 72.5857 72.3008 72.281 72.6992 72.281H87.3944C87.7929 72.281 88.0975 72.5857 88.0975 72.9841V83.4606C88.0975 83.8591 87.7929 84.1637 87.3944 84.1637Z" fill="#2681FF"/>
<path d="M84.957 84.1638H79.332V77.2732C79.332 76.8748 79.6367 76.5701 80.0352 76.5701H84.2539C84.6523 76.5701 84.957 76.8748 84.957 77.2732V84.1638Z" fill="#2681FF"/>
<path d="M99.1367 18.4455C98.832 18.4455 98.5273 18.3283 98.3164 18.094L95.7383 15.5158C95.5273 15.3049 95.3867 15.0002 95.3867 14.6955C95.3867 14.3908 95.5039 14.0862 95.7383 13.8752L98.3164 11.2971C98.7851 10.8284 99.5117 10.8284 99.9804 11.2971L102.559 13.8752C102.769 14.0862 102.91 14.3908 102.91 14.6955C102.91 15.0002 102.793 15.3049 102.559 15.5158L99.9804 18.094C99.7461 18.3283 99.4414 18.4455 99.1367 18.4455ZM98.1992 14.6955L99.1133 15.6096L100.027 14.6955L99.1133 13.7815L98.1992 14.6955Z" fill="#2681FF"/>
<path d="M20.1093 115.429C19.8047 115.429 19.5 115.312 19.289 115.078L16.7109 112.499C16.5 112.289 16.3594 111.984 16.3594 111.679C16.3594 111.374 16.4766 111.07 16.7109 110.859L19.289 108.281C19.7578 107.812 20.4843 107.812 20.9531 108.281L23.5312 110.859C23.7421 111.07 23.8828 111.374 23.8828 111.679C23.8828 111.984 23.7656 112.289 23.5312 112.499L20.9531 115.078C20.7187 115.312 20.414 115.429 20.1093 115.429ZM19.1719 111.679L20.0859 112.593L21 111.679L20.0859 110.765L19.1719 111.679Z" fill="#2681FF"/>
<path d="M88.0976 11.8361C87.7929 11.8361 87.4883 11.7189 87.2773 11.4846L84.6992 8.90646C84.4883 8.69553 84.3477 8.39084 84.3477 8.08616C84.3477 7.78147 84.4648 7.47679 84.6992 7.26585L87.2773 4.68774C87.7461 4.21899 88.4726 4.21899 88.9414 4.68774L91.5195 7.26585C91.9882 7.7346 91.9882 8.46115 91.5195 8.9299L88.9414 11.508C88.707 11.7424 88.4023 11.8361 88.0976 11.8361ZM87.1836 8.08616L88.0976 9.00021L89.0117 8.08616L88.0976 7.1721L87.1836 8.08616Z" fill="#2681FF"/>
<path d="M103.637 115.664C102.98 115.664 102.465 115.148 102.465 114.492C102.465 113.718 101.832 113.085 101.059 113.085C100.402 113.085 99.8867 112.57 99.8867 111.914C99.8867 111.257 100.402 110.742 101.059 110.742C101.832 110.742 102.465 110.109 102.465 109.335C102.465 108.679 102.98 108.164 103.637 108.164C104.293 108.164 104.809 108.679 104.809 109.335C104.809 110.109 105.441 110.742 106.215 110.742C106.871 110.742 107.387 111.257 107.387 111.914C107.387 112.57 106.871 113.085 106.215 113.085C105.441 113.085 104.809 113.718 104.809 114.492C104.809 115.148 104.27 115.664 103.637 115.664Z" fill="#2681FF"/>
<path d="M30.703 111.351C28.4061 111.351 26.5077 109.476 26.5077 107.156V34.8751H10.5234V100.125C10.5234 101.695 11.8125 102.984 13.3828 102.984H20.7421C21.1171 102.984 21.3984 103.289 21.3984 103.64C21.3984 103.992 21.0937 104.297 20.7421 104.297H13.3828C11.0859 104.297 9.1875 102.422 9.1875 100.101V26.4142C9.1875 24.1174 11.0625 22.2424 13.3828 22.2424H26.5311V19.383C26.5311 17.0862 28.4061 15.2112 30.7264 15.2112H89.3667C91.6635 15.2112 93.5385 17.0862 93.5385 19.383V22.2424H106.687C107.812 22.2424 108.843 22.6877 109.64 23.4611C110.437 24.258 110.859 25.3127 110.859 26.4142V100.125C110.859 102.422 108.984 104.32 106.687 104.32H93.5151V107.179C93.5151 109.476 91.6401 111.375 89.3432 111.375H30.703V111.351ZM27.8436 107.156C27.8436 108.726 29.1327 110.015 30.703 110.015H89.3432C90.9135 110.015 92.2026 108.726 92.2026 107.156V40.6641C92.2026 40.2891 92.5073 40.0079 92.8588 40.0079C93.2104 40.0079 93.5151 40.3126 93.5151 40.6641V102.984H106.663C108.234 102.984 109.523 101.695 109.523 100.125V34.8751H92.8588C92.4838 34.8751 92.2026 34.5704 92.2026 34.2189V27.8439H27.8436V107.156ZM93.5151 33.5392H109.499V26.4142C109.499 24.8439 108.21 23.5549 106.64 23.5549H93.5151V33.5392ZM13.3828 23.5783C11.8125 23.5783 10.5234 24.8674 10.5234 26.4377V33.5626H26.5077V23.6018H13.3828V23.5783ZM30.703 16.5237C29.1327 16.5237 27.8436 17.8127 27.8436 19.383V26.508H92.1791V19.383C92.1791 17.8127 90.8901 16.5237 89.3198 16.5237H30.703Z" fill="#4C5259"/>
<path d="M18.793 29.2266C18.418 29.2266 18.1367 28.9219 18.1367 28.5703V28.5469C18.1367 28.1719 18.4414 27.8906 18.793 27.8906C19.1445 27.8906 19.4492 28.1953 19.4492 28.5469V28.5703C19.4492 28.9453 19.168 29.2266 18.793 29.2266Z" fill="#4C5259"/>
<path d="M23.3203 29.2266C22.9453 29.2266 22.6641 28.9219 22.6641 28.5703V28.5469C22.6641 28.1719 22.9687 27.8906 23.3203 27.8906C23.6719 27.8906 23.9765 28.1953 23.9765 28.5469V28.5703C24 28.9453 23.6953 29.2266 23.3203 29.2266Z" fill="#4C5259"/>
<path d="M36.1172 22.1953C35.7422 22.1953 35.4609 21.8906 35.4609 21.5391V21.5156C35.4609 21.1406 35.7656 20.8594 36.1172 20.8594C36.4687 20.8594 36.7734 21.1641 36.7734 21.5156V21.5391C36.7969 21.8906 36.4922 22.1953 36.1172 22.1953Z" fill="#4C5259"/>
<path d="M40.6602 22.1953C40.2852 22.1953 40.0039 21.8906 40.0039 21.5391V21.5156C40.0039 21.1406 40.3086 20.8594 40.6602 20.8594C41.0117 20.8594 41.3164 21.1641 41.3164 21.5156V21.5391C41.3164 21.8906 41.0117 22.1953 40.6602 22.1953Z" fill="#4C5259"/>
<path d="M45.1875 22.1953C44.8125 22.1953 44.5312 21.8906 44.5312 21.5391V21.5156C44.5312 21.1406 44.8359 20.8594 45.1875 20.8594C45.5391 20.8594 45.8437 21.1641 45.8437 21.5156V21.5391C45.8437 21.8906 45.5625 22.1953 45.1875 22.1953Z" fill="#4C5259"/>
<path d="M84.0469 50.7422C83.8594 50.7422 83.6953 50.6718 83.5781 50.5547C83.4609 50.4375 83.3906 50.2734 83.3906 50.0859C83.3906 49.8984 83.4609 49.7344 83.5781 49.6172L84.4687 48.7265L83.5781 47.8359C83.4609 47.7187 83.3906 47.5547 83.3906 47.3672C83.3906 47.1797 83.4609 47.0156 83.5781 46.8984C83.6953 46.7813 83.8594 46.7109 84.0469 46.7109C84.2344 46.7109 84.3984 46.7813 84.5156 46.8984L85.875 48.2578C85.9922 48.375 86.0625 48.539 86.0625 48.7265C86.0625 48.914 85.9922 49.0781 85.875 49.1953L84.5156 50.5547C84.375 50.6718 84.2109 50.7422 84.0469 50.7422Z" fill="#4C5259"/>
<path d="M36 50.7422C35.8125 50.7422 35.6484 50.6718 35.5312 50.5547L34.1719 49.1953C34.0547 49.0781 33.9844 48.914 33.9844 48.7265C33.9844 48.539 34.0547 48.375 34.1719 48.2578L35.5312 46.8984C35.6484 46.7813 35.8125 46.7109 36 46.7109C36.1875 46.7109 36.3515 46.7813 36.4687 46.8984C36.5859 47.0156 36.6562 47.1797 36.6562 47.3672C36.6562 47.5547 36.5859 47.7187 36.4687 47.8359L35.5781 48.7265L36.4687 49.6172C36.5859 49.7344 36.6562 49.8984 36.6562 50.0859C36.6562 50.2734 36.5859 50.4375 36.4687 50.5547C36.3515 50.6718 36.1875 50.7422 36 50.7422Z" fill="#4C5259"/>
<path d="M56.0625 62.4138C55.6172 62.4138 55.2656 62.0622 55.2656 61.6169C55.2656 61.1716 55.6172 60.8201 56.0625 60.8201C56.5078 60.8201 56.8594 61.1716 56.8594 61.6169C56.8594 62.0622 56.5078 62.4138 56.0625 62.4138Z" fill="#4C5259"/>
<path d="M60.0195 62.3904C60.4596 62.3904 60.8164 62.0336 60.8164 61.5935C60.8164 61.1534 60.4596 60.7966 60.0195 60.7966C59.5794 60.7966 59.2227 61.1534 59.2227 61.5935C59.2227 62.0336 59.5794 62.3904 60.0195 62.3904Z" fill="#4C5259"/>
<path d="M63.9844 62.3904C64.4245 62.3904 64.7812 62.0336 64.7812 61.5935C64.7812 61.1534 64.4245 60.7966 63.9844 60.7966C63.5443 60.7966 63.1875 61.1534 63.1875 61.5935C63.1875 62.0336 63.5443 62.3904 63.9844 62.3904Z" fill="#4C5259"/>
<path d="M35.3398 89.6482C34.9648 89.6482 34.6602 89.3435 34.6602 88.9685C34.6602 88.5935 34.9648 88.2888 35.3398 88.2888H43.496C43.871 88.2888 44.1757 88.5935 44.1757 88.9685C44.1757 89.3435 43.871 89.6482 43.496 89.6482H35.3398Z" fill="#4C5259"/>
<path d="M32.5273 98.0854C32.1523 98.0854 31.8477 97.7808 31.8477 97.4058C31.8477 97.0308 32.1523 96.7261 32.5273 96.7261H46.871C47.246 96.7261 47.5507 97.0308 47.5507 97.4058C47.5507 97.7808 47.246 98.0854 46.871 98.0854H32.5273Z" fill="#4C5259"/>
<path d="M32.5273 102.656C32.1523 102.656 31.8477 102.351 31.8477 101.976C31.8477 101.601 32.1523 101.296 32.5273 101.296H46.871C47.246 101.296 47.5507 101.601 47.5507 101.976C47.5507 102.351 47.246 102.656 46.871 102.656H32.5273Z" fill="#4C5259"/>
<path d="M55.6641 89.6482C55.2891 89.6482 54.9844 89.3435 54.9844 88.9685C54.9844 88.5935 55.2891 88.2888 55.6641 88.2888H63.8203C64.1953 88.2888 64.4999 88.5935 64.4999 88.9685C64.4999 89.3435 64.1953 89.6482 63.8203 89.6482H55.6641Z" fill="#4C5259"/>
<path d="M52.8516 98.0854C52.4766 98.0854 52.1719 97.7808 52.1719 97.4058C52.1719 97.0308 52.4766 96.7261 52.8516 96.7261H67.1952C67.5702 96.7261 67.8749 97.0308 67.8749 97.4058C67.8749 97.7808 67.5702 98.0854 67.1952 98.0854H52.8516Z" fill="#4C5259"/>
<path d="M52.8516 102.656C52.4766 102.656 52.1719 102.351 52.1719 101.976C52.1719 101.601 52.4766 101.296 52.8516 101.296H67.1952C67.5702 101.296 67.8749 101.601 67.8749 101.976C67.8749 102.351 67.5702 102.656 67.1952 102.656H52.8516Z" fill="#4C5259"/>
<path d="M75.9844 89.6482C75.6094 89.6482 75.3047 89.3435 75.3047 88.9685C75.3047 88.5935 75.6094 88.2888 75.9844 88.2888H84.1406C84.5156 88.2888 84.8202 88.5935 84.8202 88.9685C84.8202 89.3435 84.5156 89.6482 84.1406 89.6482H75.9844Z" fill="#4C5259"/>
<path d="M73.1719 98.0854C72.7969 98.0854 72.4922 97.7808 72.4922 97.4058C72.4922 97.0308 72.7969 96.7261 73.1719 96.7261H87.5155C87.8905 96.7261 88.1952 97.0308 88.1952 97.4058C88.1952 97.7808 87.8905 98.0854 87.5155 98.0854H73.1719Z" fill="#4C5259"/>
<path d="M73.1719 102.656C72.7969 102.656 72.4922 102.351 72.4922 101.976C72.4922 101.601 72.7969 101.296 73.1719 101.296H87.5155C87.8905 101.296 88.1952 101.601 88.1952 101.976C88.1952 102.351 87.8905 102.656 87.5155 102.656H73.1719Z" fill="#4C5259"/>
</svg>
