<svg width="120" height="120" viewBox="0 0 120 120" fill="none" xmlns="http://www.w3.org/2000/svg">
<g clip-path="url(#clip0_0_300)">
<circle cx="49.5" cy="49.4963" r="40.6" stroke="#4C5259" stroke-width="1.8"/>
<path d="M110.41 119.949C107.865 119.949 105.448 118.956 103.641 117.15L77.6107 91.0937L76.8728 91.5771C68.7812 96.8188 59.4428 99.5669 49.8499 99.5669C42.369 99.5669 34.8372 97.8367 28.1197 94.6051C21.0968 91.1954 15.0917 86.3354 10.3334 80.1013C2.21635 69.5669 -1.2951 56.4881 0.43518 43.3074C2.16546 30.1267 8.93391 18.3965 19.4937 10.3049C28.2723 3.56185 38.7303 -0.000488281 49.7736 -0.000488281C57.2545 -0.000488281 64.7609 1.70435 71.4784 4.9359C78.5268 8.32012 84.5318 13.2056 89.3156 19.4652L90.0789 20.4575L95.1425 15.3939L94.71 14.656C94.0738 13.5873 93.7176 12.3659 93.7176 11.1191C93.7176 7.25142 96.8728 4.07076 100.766 4.07076C103.972 4.07076 106.746 6.25905 107.56 9.36338L107.763 10.1776H120.028V12.0606H107.763L107.56 12.8748C106.771 15.9792 103.972 18.142 100.766 18.1674C99.5191 18.1674 98.2978 17.8112 97.229 17.1751L96.4911 16.7425L91.1731 22.0606L91.6565 22.7985C102.318 39.2107 102.318 60.4321 91.6565 76.8443L91.1731 77.5822L117.204 103.613C120.944 107.353 120.944 113.409 117.204 117.15C115.372 118.956 112.98 119.949 110.41 119.949ZM87.8143 98.6509L104.99 115.826C105.015 115.852 105.066 115.903 105.117 115.954C106.567 117.379 108.476 118.142 110.486 118.142C112.573 118.142 114.532 117.328 115.982 115.826C117.433 114.351 118.196 112.417 118.171 110.356C118.145 108.295 117.331 106.386 115.855 104.936L98.7049 87.7858L87.8143 98.6509ZM49.7227 1.72979C39.6973 1.72979 30.0789 4.83412 21.8856 10.6865C11.453 18.1166 4.53187 29.1853 2.44536 41.8316C0.333399 54.4779 3.28505 67.1751 10.7405 77.6077C19.7227 90.2031 34.3537 97.7094 49.8245 97.7094C59.8499 97.7094 69.4937 94.6051 77.6871 88.7527C78.7049 88.0402 79.57 87.3532 80.3588 86.7171C80.486 86.5898 80.6387 86.4881 80.7659 86.3608C80.8677 86.259 80.995 86.1573 81.0967 86.0809C81.8347 85.4448 82.5726 84.7832 83.2596 84.0962C83.5649 83.8163 83.8703 83.511 84.1502 83.2056C84.8117 82.5186 85.4733 81.7807 86.1349 81.0428C86.2112 80.9664 86.2876 80.8901 86.3639 80.7883C86.5166 80.6356 86.6438 80.4575 86.7965 80.3049C87.4581 79.5161 88.1196 78.6255 88.8321 77.6331C100.766 60.941 100.766 38.5237 88.8321 21.8316C79.8245 9.23615 65.2189 1.72979 49.7227 1.72979ZM89.3156 80.1267C89.1883 80.2794 89.0866 80.4321 88.9593 80.5593C88.8575 80.6865 88.7558 80.8138 88.654 80.941C88.425 81.2463 88.1705 81.5262 87.9161 81.8316C87.5089 82.315 87.1527 82.7476 86.7965 83.1293C86.6693 83.2565 86.5675 83.3837 86.4402 83.511L86.2112 83.7654C85.4479 84.5797 84.6591 85.3685 83.8448 86.1318L83.5904 86.3608C83.4631 86.4881 83.3359 86.6153 83.1832 86.7425C82.8016 87.0733 82.3944 87.4295 81.911 87.8621C81.6056 88.1166 81.3003 88.371 81.0204 88.6C80.8932 88.7018 80.7659 88.8036 80.6387 88.9054C80.486 89.0326 80.3588 89.1598 80.2062 89.2616L79.2138 90.0249L86.5166 97.3278L97.4072 86.4372L90.0789 79.1344L89.3156 80.1267ZM100.74 5.95371C97.8906 5.95371 95.5751 8.26923 95.5751 11.1191C95.5751 13.969 97.8906 16.2845 100.74 16.2845C103.59 16.2845 105.906 13.969 105.906 11.1191C105.906 8.26923 103.59 5.95371 100.74 5.95371Z" fill="#4C5259"/>
<path d="M87.8154 98.6508L104.991 115.826C105.016 115.852 105.067 115.903 105.118 115.954C106.569 117.379 108.477 118.142 110.487 118.142C112.574 118.142 114.533 117.328 115.983 115.826C117.434 114.351 118.197 112.417 118.172 110.356C118.146 108.295 117.332 106.386 115.856 104.936L98.7059 87.7857L87.8154 98.6508ZM89.3166 80.1266C89.1894 80.2793 89.0876 80.432 88.9604 80.5592C88.8586 80.6864 88.7568 80.8137 88.655 80.9409C88.426 81.2462 88.1716 81.5261 87.9171 81.8315C87.51 82.3149 87.1538 82.7475 86.7975 83.1292C86.6703 83.2564 86.5685 83.3836 86.4413 83.5109L86.2123 83.7653C85.4489 84.5796 84.6601 85.3684 83.8459 86.1317L83.5914 86.3607C83.4642 86.488 83.337 86.6152 83.1843 86.7424C82.8026 87.0732 82.3955 87.4294 81.912 87.862C81.6067 88.1165 81.3014 88.3709 81.0215 88.5999C80.8942 88.7017 80.767 88.8035 80.6398 88.9053C80.4871 89.0325 80.3599 89.1597 80.2072 89.2615L79.2148 90.0249L86.5176 97.3277L97.4082 86.4371L90.08 79.1343L89.3166 80.1266Z" fill="#F0F4F5"/>
<circle cx="72" cy="38.9963" r="7" fill="#2681FF"/>
<circle cx="47" cy="63.9963" r="7" fill="#2681FF"/>
<circle cx="28" cy="43.9963" r="7" fill="#2681FF"/>
<circle cx="101" cy="10.9963" r="7" fill="#2681FF"/>
<path d="M82.5 27.9963L46.5 63.9963L28.5 45.9963L11.5 59.4963" stroke="#2681FF" stroke-width="1.8"/>
</g>
<defs>
<clipPath id="clip0_0_300">
<rect width="120" height="119.949" fill="white" transform="translate(0 -0.000488281)"/>
</clipPath>
</defs>
</svg>
